<mxfile host="app.diagrams.net" modified="2020-12-08T03:47:34.829Z" agent="5.0 (Windows NT 10.0; WOW64) AppleWebKit/537.36 (KHTML, like Gecko) Chrome/65.0.3325.181 Safari/537.36" etag="9whOve3mxlX-7UZTrzE0" version="13.11.0" type="github">
  <diagram name="Page-2" id="j69vw8_M-CcU9qRyVlGH">
    <mxGraphModel dx="1662" dy="799" grid="1" gridSize="10" guides="1" tooltips="1" connect="1" arrows="1" fold="1" page="1" pageScale="1" pageWidth="827" pageHeight="1169" background="#FFFFFF" math="0" shadow="0">
      <root>
        <mxCell id="9Uq3U7OXlzmtbaHYE6mR-0" />
        <mxCell id="9Uq3U7OXlzmtbaHYE6mR-1" parent="9Uq3U7OXlzmtbaHYE6mR-0" />
        <mxCell id="9Uq3U7OXlzmtbaHYE6mR-413" value="说明" style="html=1;align=right;verticalAlign=bottom;dashed=1;dashPattern=1 1;" parent="9Uq3U7OXlzmtbaHYE6mR-1" vertex="1">
          <mxGeometry x="1205" y="4402" width="285" height="238" as="geometry" />
        </mxCell>
        <mxCell id="9Uq3U7OXlzmtbaHYE6mR-6" style="edgeStyle=orthogonalEdgeStyle;rounded=0;orthogonalLoop=1;jettySize=auto;html=1;" parent="9Uq3U7OXlzmtbaHYE6mR-1" source="9Uq3U7OXlzmtbaHYE6mR-2" edge="1">
          <mxGeometry relative="1" as="geometry">
            <mxPoint x="130" y="4550" as="targetPoint" />
            <Array as="points">
              <mxPoint x="130" y="4533" />
            </Array>
          </mxGeometry>
        </mxCell>
        <mxCell id="9Uq3U7OXlzmtbaHYE6mR-2" value="ExcController" style="swimlane;fontStyle=1;align=center;verticalAlign=middle;childLayout=stackLayout;horizontal=1;startSize=29;horizontalStack=0;resizeParent=1;resizeParentMax=0;resizeLast=0;collapsible=0;marginBottom=0;html=1;fillColor=#d5e8d4;strokeColor=#82b366;" parent="9Uq3U7OXlzmtbaHYE6mR-1" vertex="1">
          <mxGeometry x="60" y="70" width="140" height="79" as="geometry" />
        </mxCell>
        <mxCell id="9Uq3U7OXlzmtbaHYE6mR-3" value="deal" style="text;html=1;strokeColor=#82b366;fillColor=#d5e8d4;align=center;verticalAlign=middle;spacingLeft=4;spacingRight=4;overflow=hidden;rotatable=0;points=[[0,0.5],[1,0.5]];portConstraint=eastwest;" parent="9Uq3U7OXlzmtbaHYE6mR-2" vertex="1">
          <mxGeometry y="29" width="140" height="25" as="geometry" />
        </mxCell>
        <mxCell id="9Uq3U7OXlzmtbaHYE6mR-4" value="{method}/{innerId}" style="text;html=1;strokeColor=#82b366;fillColor=#d5e8d4;align=left;verticalAlign=middle;spacingLeft=4;spacingRight=4;overflow=hidden;rotatable=0;points=[[0,0.5],[1,0.5]];portConstraint=eastwest;" parent="9Uq3U7OXlzmtbaHYE6mR-2" vertex="1">
          <mxGeometry y="54" width="140" height="25" as="geometry" />
        </mxCell>
        <mxCell id="9Uq3U7OXlzmtbaHYE6mR-11" style="edgeStyle=orthogonalEdgeStyle;rounded=0;orthogonalLoop=1;jettySize=auto;html=1;endArrow=none;endFill=0;dashed=1;" parent="9Uq3U7OXlzmtbaHYE6mR-1" source="9Uq3U7OXlzmtbaHYE6mR-8" edge="1">
          <mxGeometry relative="1" as="geometry">
            <mxPoint x="330" y="270" as="targetPoint" />
          </mxGeometry>
        </mxCell>
        <mxCell id="9Uq3U7OXlzmtbaHYE6mR-8" value="ExchangeUtil" style="swimlane;fontStyle=1;align=center;verticalAlign=middle;childLayout=stackLayout;horizontal=1;startSize=29;horizontalStack=0;resizeParent=1;resizeParentMax=0;resizeLast=0;collapsible=0;marginBottom=0;html=1;fillColor=#d5e8d4;strokeColor=#82b366;" parent="9Uq3U7OXlzmtbaHYE6mR-1" vertex="1">
          <mxGeometry x="260" y="70" width="140" height="80" as="geometry" />
        </mxCell>
        <mxCell id="9Uq3U7OXlzmtbaHYE6mR-9" value="readRequest" style="text;html=1;strokeColor=#82b366;fillColor=#d5e8d4;align=center;verticalAlign=middle;spacingLeft=4;spacingRight=4;overflow=hidden;rotatable=0;points=[[0,0.5],[1,0.5]];portConstraint=eastwest;" parent="9Uq3U7OXlzmtbaHYE6mR-8" vertex="1">
          <mxGeometry y="29" width="140" height="25" as="geometry" />
        </mxCell>
        <mxCell id="9Uq3U7OXlzmtbaHYE6mR-10" value="request" style="text;html=1;strokeColor=#82b366;fillColor=#d5e8d4;align=left;verticalAlign=middle;spacingLeft=4;spacingRight=4;overflow=hidden;rotatable=0;points=[[0,0.5],[1,0.5]];portConstraint=eastwest;" parent="9Uq3U7OXlzmtbaHYE6mR-8" vertex="1">
          <mxGeometry y="54" width="140" height="26" as="geometry" />
        </mxCell>
        <mxCell id="9Uq3U7OXlzmtbaHYE6mR-19" style="edgeStyle=orthogonalEdgeStyle;rounded=0;orthogonalLoop=1;jettySize=auto;html=1;endArrow=none;endFill=0;" parent="9Uq3U7OXlzmtbaHYE6mR-1" source="9Uq3U7OXlzmtbaHYE6mR-46" edge="1">
          <mxGeometry relative="1" as="geometry">
            <mxPoint x="530" y="4570" as="targetPoint" />
            <Array as="points">
              <mxPoint x="530" y="4240" />
              <mxPoint x="530" y="4240" />
            </Array>
          </mxGeometry>
        </mxCell>
        <mxCell id="9Uq3U7OXlzmtbaHYE6mR-12" value="excBaseService" style="swimlane;fontStyle=1;align=center;verticalAlign=middle;childLayout=stackLayout;horizontal=1;startSize=29;horizontalStack=0;resizeParent=1;resizeParentMax=0;resizeLast=0;collapsible=0;marginBottom=0;html=1;fillColor=#d5e8d4;strokeColor=#82b366;" parent="9Uq3U7OXlzmtbaHYE6mR-1" vertex="1">
          <mxGeometry x="450" y="70" width="160" height="70" as="geometry" />
        </mxCell>
        <mxCell id="9Uq3U7OXlzmtbaHYE6mR-13" value="dealInto" style="text;html=1;strokeColor=#82b366;fillColor=#d5e8d4;align=center;verticalAlign=middle;spacingLeft=4;spacingRight=4;overflow=hidden;rotatable=0;points=[[0,0.5],[1,0.5]];portConstraint=eastwest;" parent="9Uq3U7OXlzmtbaHYE6mR-12" vertex="1">
          <mxGeometry y="29" width="160" height="25" as="geometry" />
        </mxCell>
        <mxCell id="9Uq3U7OXlzmtbaHYE6mR-14" value="(bodyStr, innerId, method)" style="text;html=1;strokeColor=#82b366;fillColor=#d5e8d4;align=left;verticalAlign=middle;spacingLeft=4;spacingRight=4;overflow=hidden;rotatable=0;points=[[0,0.5],[1,0.5]];portConstraint=eastwest;" parent="9Uq3U7OXlzmtbaHYE6mR-12" vertex="1">
          <mxGeometry y="54" width="160" height="16" as="geometry" />
        </mxCell>
        <mxCell id="9Uq3U7OXlzmtbaHYE6mR-15" value="" style="html=1;points=[];perimeter=orthogonalPerimeter;" parent="9Uq3U7OXlzmtbaHYE6mR-1" vertex="1">
          <mxGeometry x="320" y="180" width="10" height="80" as="geometry" />
        </mxCell>
        <mxCell id="9Uq3U7OXlzmtbaHYE6mR-16" value="dispatch" style="html=1;verticalAlign=bottom;endArrow=block;entryX=0;entryY=0;" parent="9Uq3U7OXlzmtbaHYE6mR-1" target="9Uq3U7OXlzmtbaHYE6mR-15" edge="1">
          <mxGeometry relative="1" as="geometry">
            <mxPoint x="130" y="180" as="sourcePoint" />
          </mxGeometry>
        </mxCell>
        <mxCell id="9Uq3U7OXlzmtbaHYE6mR-17" value="return&amp;nbsp;&lt;span style=&quot;font-size: 12px ; background-color: rgb(248 , 249 , 250)&quot;&gt;bodyStr&lt;/span&gt;" style="html=1;verticalAlign=bottom;endArrow=open;dashed=1;endSize=8;exitX=0;exitY=0.95;" parent="9Uq3U7OXlzmtbaHYE6mR-1" source="9Uq3U7OXlzmtbaHYE6mR-15" edge="1">
          <mxGeometry relative="1" as="geometry">
            <mxPoint x="130" y="256" as="targetPoint" />
          </mxGeometry>
        </mxCell>
        <mxCell id="9Uq3U7OXlzmtbaHYE6mR-21" value="" style="html=1;points=[];perimeter=orthogonalPerimeter;" parent="9Uq3U7OXlzmtbaHYE6mR-1" vertex="1">
          <mxGeometry x="520" y="300" width="10" height="4120" as="geometry" />
        </mxCell>
        <mxCell id="9Uq3U7OXlzmtbaHYE6mR-22" value="dispatch" style="html=1;verticalAlign=bottom;endArrow=block;entryX=0;entryY=0;" parent="9Uq3U7OXlzmtbaHYE6mR-1" target="9Uq3U7OXlzmtbaHYE6mR-21" edge="1">
          <mxGeometry relative="1" as="geometry">
            <mxPoint x="140" y="300" as="sourcePoint" />
          </mxGeometry>
        </mxCell>
        <mxCell id="9Uq3U7OXlzmtbaHYE6mR-32" style="edgeStyle=orthogonalEdgeStyle;rounded=0;orthogonalLoop=1;jettySize=auto;html=1;endArrow=none;endFill=0;dashed=1;" parent="9Uq3U7OXlzmtbaHYE6mR-1" source="9Uq3U7OXlzmtbaHYE6mR-31" edge="1">
          <mxGeometry relative="1" as="geometry">
            <mxPoint x="735" y="4080" as="targetPoint" />
          </mxGeometry>
        </mxCell>
        <mxCell id="9Uq3U7OXlzmtbaHYE6mR-31" value="&lt;span style=&quot;font-weight: 700&quot;&gt;excService&lt;/span&gt;" style="html=1;fillColor=#d5e8d4;strokeColor=#82b366;" parent="9Uq3U7OXlzmtbaHYE6mR-1" vertex="1">
          <mxGeometry x="680" y="80" width="110" height="50" as="geometry" />
        </mxCell>
        <mxCell id="9Uq3U7OXlzmtbaHYE6mR-33" value="" style="html=1;points=[];perimeter=orthogonalPerimeter;fillColor=#fff2cc;strokeColor=#d6b656;" parent="9Uq3U7OXlzmtbaHYE6mR-1" vertex="1">
          <mxGeometry x="730" y="310" width="10" height="40" as="geometry" />
        </mxCell>
        <mxCell id="9Uq3U7OXlzmtbaHYE6mR-34" value="&lt;span style=&quot;font-size: 12px ; background-color: rgb(248 , 249 , 250)&quot;&gt;selectInsurerByInnerId&lt;/span&gt;" style="html=1;verticalAlign=bottom;endArrow=block;entryX=0;entryY=0;dashed=1;" parent="9Uq3U7OXlzmtbaHYE6mR-1" target="9Uq3U7OXlzmtbaHYE6mR-33" edge="1">
          <mxGeometry relative="1" as="geometry">
            <mxPoint x="530" y="310" as="sourcePoint" />
          </mxGeometry>
        </mxCell>
        <mxCell id="9Uq3U7OXlzmtbaHYE6mR-35" value="Insurer" style="html=1;verticalAlign=bottom;endArrow=open;dashed=1;endSize=8;exitX=0;exitY=0.95;" parent="9Uq3U7OXlzmtbaHYE6mR-1" source="9Uq3U7OXlzmtbaHYE6mR-33" edge="1">
          <mxGeometry relative="1" as="geometry">
            <mxPoint x="540" y="348" as="targetPoint" />
            <Array as="points">
              <mxPoint x="620" y="348" />
            </Array>
          </mxGeometry>
        </mxCell>
        <mxCell id="9Uq3U7OXlzmtbaHYE6mR-39" value="" style="html=1;points=[];perimeter=orthogonalPerimeter;fillColor=#fff2cc;strokeColor=#d6b656;" parent="9Uq3U7OXlzmtbaHYE6mR-1" vertex="1">
          <mxGeometry x="730" y="385" width="10" height="40" as="geometry" />
        </mxCell>
        <mxCell id="9Uq3U7OXlzmtbaHYE6mR-40" value="selectPortByMethod" style="html=1;verticalAlign=bottom;endArrow=block;entryX=0;entryY=0;dashed=1;" parent="9Uq3U7OXlzmtbaHYE6mR-1" target="9Uq3U7OXlzmtbaHYE6mR-39" edge="1">
          <mxGeometry relative="1" as="geometry">
            <mxPoint x="530" y="385" as="sourcePoint" />
          </mxGeometry>
        </mxCell>
        <mxCell id="9Uq3U7OXlzmtbaHYE6mR-41" value="Port" style="html=1;verticalAlign=bottom;endArrow=open;dashed=1;endSize=8;exitX=0;exitY=0.95;" parent="9Uq3U7OXlzmtbaHYE6mR-1" source="9Uq3U7OXlzmtbaHYE6mR-39" edge="1">
          <mxGeometry relative="1" as="geometry">
            <mxPoint x="540" y="423" as="targetPoint" />
            <Array as="points">
              <mxPoint x="620" y="423" />
            </Array>
          </mxGeometry>
        </mxCell>
        <mxCell id="9Uq3U7OXlzmtbaHYE6mR-43" value="" style="html=1;points=[];perimeter=orthogonalPerimeter;fillColor=#fff2cc;strokeColor=#d6b656;" parent="9Uq3U7OXlzmtbaHYE6mR-1" vertex="1">
          <mxGeometry x="730" y="459" width="10" height="42" as="geometry" />
        </mxCell>
        <mxCell id="9Uq3U7OXlzmtbaHYE6mR-44" value="selectInsurerPortByInsAndPort" style="html=1;verticalAlign=bottom;endArrow=block;entryX=0;entryY=0;dashed=1;" parent="9Uq3U7OXlzmtbaHYE6mR-1" target="9Uq3U7OXlzmtbaHYE6mR-43" edge="1">
          <mxGeometry relative="1" as="geometry">
            <mxPoint x="530" y="459" as="sourcePoint" />
          </mxGeometry>
        </mxCell>
        <mxCell id="9Uq3U7OXlzmtbaHYE6mR-45" value="InsurerPort" style="html=1;verticalAlign=bottom;endArrow=open;dashed=1;endSize=8;exitX=0;exitY=0.95;" parent="9Uq3U7OXlzmtbaHYE6mR-1" source="9Uq3U7OXlzmtbaHYE6mR-43" edge="1">
          <mxGeometry relative="1" as="geometry">
            <mxPoint x="540" y="497" as="targetPoint" />
            <Array as="points">
              <mxPoint x="620" y="497" />
            </Array>
          </mxGeometry>
        </mxCell>
        <mxCell id="9Uq3U7OXlzmtbaHYE6mR-46" value="" style="html=1;points=[];perimeter=orthogonalPerimeter;" parent="9Uq3U7OXlzmtbaHYE6mR-1" vertex="1">
          <mxGeometry x="525" y="610" width="10" height="45" as="geometry" />
        </mxCell>
        <mxCell id="9Uq3U7OXlzmtbaHYE6mR-50" style="edgeStyle=orthogonalEdgeStyle;rounded=0;orthogonalLoop=1;jettySize=auto;html=1;endArrow=none;endFill=0;" parent="9Uq3U7OXlzmtbaHYE6mR-1" source="9Uq3U7OXlzmtbaHYE6mR-12" target="9Uq3U7OXlzmtbaHYE6mR-46" edge="1">
          <mxGeometry relative="1" as="geometry">
            <mxPoint x="530" y="870" as="targetPoint" />
            <mxPoint x="530" y="140" as="sourcePoint" />
          </mxGeometry>
        </mxCell>
        <mxCell id="9Uq3U7OXlzmtbaHYE6mR-55" style="edgeStyle=orthogonalEdgeStyle;rounded=0;orthogonalLoop=1;jettySize=auto;html=1;dashed=1;endArrow=classic;endFill=1;" parent="9Uq3U7OXlzmtbaHYE6mR-1" source="9Uq3U7OXlzmtbaHYE6mR-48" edge="1">
          <mxGeometry relative="1" as="geometry">
            <mxPoint x="540" y="620" as="targetPoint" />
          </mxGeometry>
        </mxCell>
        <mxCell id="9Uq3U7OXlzmtbaHYE6mR-65" value="No" style="edgeLabel;html=1;align=center;verticalAlign=middle;resizable=0;points=[];" parent="9Uq3U7OXlzmtbaHYE6mR-55" vertex="1" connectable="0">
          <mxGeometry x="-0.0182" y="2" relative="1" as="geometry">
            <mxPoint as="offset" />
          </mxGeometry>
        </mxCell>
        <mxCell id="9Uq3U7OXlzmtbaHYE6mR-62" style="edgeStyle=orthogonalEdgeStyle;rounded=0;orthogonalLoop=1;jettySize=auto;html=1;dashed=1;endArrow=classic;endFill=1;" parent="9Uq3U7OXlzmtbaHYE6mR-1" source="9Uq3U7OXlzmtbaHYE6mR-48" edge="1">
          <mxGeometry relative="1" as="geometry">
            <mxPoint x="140" y="565" as="targetPoint" />
          </mxGeometry>
        </mxCell>
        <mxCell id="9Uq3U7OXlzmtbaHYE6mR-63" value="您访问的接口已被关闭(0016)" style="edgeLabel;html=1;align=center;verticalAlign=middle;resizable=0;points=[];" parent="9Uq3U7OXlzmtbaHYE6mR-62" vertex="1" connectable="0">
          <mxGeometry x="0.15" y="-2" relative="1" as="geometry">
            <mxPoint as="offset" />
          </mxGeometry>
        </mxCell>
        <mxCell id="9Uq3U7OXlzmtbaHYE6mR-64" value="Yes" style="edgeLabel;html=1;align=center;verticalAlign=middle;resizable=0;points=[];" parent="9Uq3U7OXlzmtbaHYE6mR-62" vertex="1" connectable="0">
          <mxGeometry x="-0.725" relative="1" as="geometry">
            <mxPoint x="-44.71" as="offset" />
          </mxGeometry>
        </mxCell>
        <mxCell id="9Uq3U7OXlzmtbaHYE6mR-48" value="是否禁用" style="rhombus;fillColor=#e1d5e7;strokeColor=#9673a6;" parent="9Uq3U7OXlzmtbaHYE6mR-1" vertex="1">
          <mxGeometry x="540" y="530" width="70" height="70" as="geometry" />
        </mxCell>
        <mxCell id="9Uq3U7OXlzmtbaHYE6mR-54" value="" style="edgeStyle=orthogonalEdgeStyle;html=1;align=left;spacingLeft=2;endArrow=block;rounded=0;entryX=0.5;entryY=0;dashed=1;entryDx=0;entryDy=0;" parent="9Uq3U7OXlzmtbaHYE6mR-1" target="9Uq3U7OXlzmtbaHYE6mR-48" edge="1">
          <mxGeometry relative="1" as="geometry">
            <mxPoint x="534" y="517" as="sourcePoint" />
            <Array as="points" />
            <mxPoint x="535" y="610" as="targetPoint" />
          </mxGeometry>
        </mxCell>
        <mxCell id="9Uq3U7OXlzmtbaHYE6mR-56" value="" style="html=1;points=[];perimeter=orthogonalPerimeter;" parent="9Uq3U7OXlzmtbaHYE6mR-1" vertex="1">
          <mxGeometry x="526" y="763" width="10" height="45" as="geometry" />
        </mxCell>
        <mxCell id="9Uq3U7OXlzmtbaHYE6mR-57" style="edgeStyle=orthogonalEdgeStyle;rounded=0;orthogonalLoop=1;jettySize=auto;html=1;dashed=1;endArrow=classic;endFill=1;" parent="9Uq3U7OXlzmtbaHYE6mR-1" source="9Uq3U7OXlzmtbaHYE6mR-58" edge="1">
          <mxGeometry relative="1" as="geometry">
            <mxPoint x="541" y="773" as="targetPoint" />
          </mxGeometry>
        </mxCell>
        <mxCell id="9Uq3U7OXlzmtbaHYE6mR-66" value="No" style="edgeLabel;html=1;align=center;verticalAlign=middle;resizable=0;points=[];" parent="9Uq3U7OXlzmtbaHYE6mR-57" vertex="1" connectable="0">
          <mxGeometry x="-0.1273" relative="1" as="geometry">
            <mxPoint as="offset" />
          </mxGeometry>
        </mxCell>
        <mxCell id="9Uq3U7OXlzmtbaHYE6mR-58" value="InsurerPort&#xa;是否整体解密" style="rhombus;fillColor=#e1d5e7;strokeColor=#9673a6;" parent="9Uq3U7OXlzmtbaHYE6mR-1" vertex="1">
          <mxGeometry x="541" y="683" width="70" height="70" as="geometry" />
        </mxCell>
        <mxCell id="9Uq3U7OXlzmtbaHYE6mR-59" value="" style="edgeStyle=orthogonalEdgeStyle;html=1;align=left;spacingLeft=2;endArrow=block;rounded=0;entryX=0.5;entryY=0;dashed=1;entryDx=0;entryDy=0;" parent="9Uq3U7OXlzmtbaHYE6mR-1" target="9Uq3U7OXlzmtbaHYE6mR-58" edge="1">
          <mxGeometry relative="1" as="geometry">
            <mxPoint x="535" y="670" as="sourcePoint" />
            <Array as="points" />
            <mxPoint x="536" y="763" as="targetPoint" />
          </mxGeometry>
        </mxCell>
        <mxCell id="9Uq3U7OXlzmtbaHYE6mR-68" value="Yes" style="html=1;verticalAlign=bottom;endArrow=block;entryX=0;entryY=0;dashed=1;exitX=1;exitY=0.5;exitDx=0;exitDy=0;entryDx=0;entryDy=0;" parent="9Uq3U7OXlzmtbaHYE6mR-1" source="9Uq3U7OXlzmtbaHYE6mR-58" target="9Uq3U7OXlzmtbaHYE6mR-76" edge="1">
          <mxGeometry relative="1" as="geometry">
            <mxPoint x="644" y="719" as="sourcePoint" />
            <mxPoint x="904" y="719" as="targetPoint" />
          </mxGeometry>
        </mxCell>
        <mxCell id="9Uq3U7OXlzmtbaHYE6mR-69" value="return" style="html=1;verticalAlign=bottom;endArrow=open;dashed=1;endSize=8;exitX=-0.029;exitY=1.077;exitDx=0;exitDy=0;exitPerimeter=0;" parent="9Uq3U7OXlzmtbaHYE6mR-1" source="9Uq3U7OXlzmtbaHYE6mR-79" edge="1">
          <mxGeometry x="-0.0707" relative="1" as="geometry">
            <mxPoint x="530" y="826" as="targetPoint" />
            <mxPoint x="900" y="826" as="sourcePoint" />
            <Array as="points">
              <mxPoint x="700" y="826" />
            </Array>
            <mxPoint as="offset" />
          </mxGeometry>
        </mxCell>
        <mxCell id="9Uq3U7OXlzmtbaHYE6mR-71" style="edgeStyle=orthogonalEdgeStyle;rounded=0;orthogonalLoop=1;jettySize=auto;html=1;dashed=1;endArrow=none;endFill=0;entryX=0.983;entryY=1.115;entryDx=0;entryDy=0;entryPerimeter=0;" parent="9Uq3U7OXlzmtbaHYE6mR-1" source="9Uq3U7OXlzmtbaHYE6mR-393" target="9Uq3U7OXlzmtbaHYE6mR-323" edge="1">
          <mxGeometry relative="1" as="geometry">
            <mxPoint x="915" y="4430" as="targetPoint" />
            <mxPoint x="915" y="1764" as="sourcePoint" />
            <Array as="points">
              <mxPoint x="918" y="3350" />
              <mxPoint x="918" y="3350" />
            </Array>
          </mxGeometry>
        </mxCell>
        <mxCell id="9Uq3U7OXlzmtbaHYE6mR-70" value="&lt;span style=&quot;font-weight: 700&quot;&gt;excServiceImpl&lt;/span&gt;" style="html=1;fillColor=#d5e8d4;strokeColor=#82b366;" parent="9Uq3U7OXlzmtbaHYE6mR-1" vertex="1">
          <mxGeometry x="860" y="80" width="110" height="50" as="geometry" />
        </mxCell>
        <mxCell id="9Uq3U7OXlzmtbaHYE6mR-76" value="encryData" style="swimlane;fontStyle=0;childLayout=stackLayout;horizontal=1;startSize=26;fillColor=#ffe6cc;horizontalStack=0;resizeParent=1;resizeParentMax=0;resizeLast=0;collapsible=1;marginBottom=0;strokeColor=#d79b00;" parent="9Uq3U7OXlzmtbaHYE6mR-1" vertex="1">
          <mxGeometry x="795" y="720" width="120" height="104" as="geometry" />
        </mxCell>
        <mxCell id="9Uq3U7OXlzmtbaHYE6mR-77" value="insurerPort.解密标识" style="text;strokeColor=#d79b00;fillColor=#ffe6cc;align=left;verticalAlign=top;spacingLeft=4;spacingRight=4;overflow=hidden;rotatable=0;points=[[0,0.5],[1,0.5]];portConstraint=eastwest;" parent="9Uq3U7OXlzmtbaHYE6mR-76" vertex="1">
          <mxGeometry y="26" width="120" height="26" as="geometry" />
        </mxCell>
        <mxCell id="9Uq3U7OXlzmtbaHYE6mR-78" value=" bodyStr" style="text;strokeColor=#d79b00;fillColor=#ffe6cc;align=left;verticalAlign=top;spacingLeft=4;spacingRight=4;overflow=hidden;rotatable=0;points=[[0,0.5],[1,0.5]];portConstraint=eastwest;" parent="9Uq3U7OXlzmtbaHYE6mR-76" vertex="1">
          <mxGeometry y="52" width="120" height="26" as="geometry" />
        </mxCell>
        <mxCell id="9Uq3U7OXlzmtbaHYE6mR-79" value="出参Type" style="text;strokeColor=#d79b00;fillColor=#ffe6cc;align=left;verticalAlign=top;spacingLeft=4;spacingRight=4;overflow=hidden;rotatable=0;points=[[0,0.5],[1,0.5]];portConstraint=eastwest;" parent="9Uq3U7OXlzmtbaHYE6mR-76" vertex="1">
          <mxGeometry y="78" width="120" height="26" as="geometry" />
        </mxCell>
        <mxCell id="9Uq3U7OXlzmtbaHYE6mR-82" value="" style="html=1;points=[];perimeter=orthogonalPerimeter;" parent="9Uq3U7OXlzmtbaHYE6mR-1" vertex="1">
          <mxGeometry x="526" y="957" width="10" height="45" as="geometry" />
        </mxCell>
        <mxCell id="9Uq3U7OXlzmtbaHYE6mR-83" style="edgeStyle=orthogonalEdgeStyle;rounded=0;orthogonalLoop=1;jettySize=auto;html=1;dashed=1;endArrow=classic;endFill=1;" parent="9Uq3U7OXlzmtbaHYE6mR-1" source="9Uq3U7OXlzmtbaHYE6mR-85" edge="1">
          <mxGeometry relative="1" as="geometry">
            <mxPoint x="541" y="967" as="targetPoint" />
          </mxGeometry>
        </mxCell>
        <mxCell id="9Uq3U7OXlzmtbaHYE6mR-84" value="No" style="edgeLabel;html=1;align=center;verticalAlign=middle;resizable=0;points=[];" parent="9Uq3U7OXlzmtbaHYE6mR-83" vertex="1" connectable="0">
          <mxGeometry x="-0.1273" relative="1" as="geometry">
            <mxPoint as="offset" />
          </mxGeometry>
        </mxCell>
        <mxCell id="9Uq3U7OXlzmtbaHYE6mR-85" value="insurerPort&#xa;保司映射入参type是否XML" style="rhombus;fillColor=#e1d5e7;strokeColor=#9673a6;" parent="9Uq3U7OXlzmtbaHYE6mR-1" vertex="1">
          <mxGeometry x="541" y="877" width="139" height="70" as="geometry" />
        </mxCell>
        <mxCell id="9Uq3U7OXlzmtbaHYE6mR-86" value="" style="edgeStyle=orthogonalEdgeStyle;html=1;align=left;spacingLeft=2;endArrow=block;rounded=0;entryX=0.5;entryY=0;dashed=1;entryDx=0;entryDy=0;" parent="9Uq3U7OXlzmtbaHYE6mR-1" target="9Uq3U7OXlzmtbaHYE6mR-85" edge="1">
          <mxGeometry relative="1" as="geometry">
            <mxPoint x="535" y="864" as="sourcePoint" />
            <Array as="points" />
            <mxPoint x="536" y="957" as="targetPoint" />
          </mxGeometry>
        </mxCell>
        <mxCell id="9Uq3U7OXlzmtbaHYE6mR-87" value="Yes" style="html=1;verticalAlign=bottom;endArrow=block;entryX=0;entryY=0;dashed=1;exitX=1;exitY=0.5;exitDx=0;exitDy=0;entryDx=0;entryDy=0;" parent="9Uq3U7OXlzmtbaHYE6mR-1" source="9Uq3U7OXlzmtbaHYE6mR-85" target="9Uq3U7OXlzmtbaHYE6mR-89" edge="1">
          <mxGeometry relative="1" as="geometry">
            <mxPoint x="644" y="913" as="sourcePoint" />
            <mxPoint x="904" y="913" as="targetPoint" />
          </mxGeometry>
        </mxCell>
        <mxCell id="9Uq3U7OXlzmtbaHYE6mR-88" value="return json 方便处理" style="html=1;verticalAlign=bottom;endArrow=open;dashed=1;endSize=8;exitX=-0.029;exitY=1.077;exitDx=0;exitDy=0;exitPerimeter=0;" parent="9Uq3U7OXlzmtbaHYE6mR-1" edge="1">
          <mxGeometry x="-0.0084" y="-4" relative="1" as="geometry">
            <mxPoint x="540" y="994" as="targetPoint" />
            <mxPoint x="956.52" y="994.002" as="sourcePoint" />
            <Array as="points">
              <mxPoint x="700" y="994" />
            </Array>
            <mxPoint as="offset" />
          </mxGeometry>
        </mxCell>
        <mxCell id="9Uq3U7OXlzmtbaHYE6mR-89" value="xmlToJson" style="swimlane;fontStyle=0;childLayout=stackLayout;horizontal=1;startSize=26;fillColor=#ffe6cc;horizontalStack=0;resizeParent=1;resizeParentMax=0;resizeLast=0;collapsible=1;marginBottom=0;strokeColor=#d79b00;" parent="9Uq3U7OXlzmtbaHYE6mR-1" vertex="1">
          <mxGeometry x="956" y="914" width="120" height="80" as="geometry" />
        </mxCell>
        <mxCell id="9Uq3U7OXlzmtbaHYE6mR-90" value="xml:  String" style="text;strokeColor=#d79b00;fillColor=#ffe6cc;align=left;verticalAlign=top;spacingLeft=4;spacingRight=4;overflow=hidden;rotatable=0;points=[[0,0.5],[1,0.5]];portConstraint=eastwest;" parent="9Uq3U7OXlzmtbaHYE6mR-89" vertex="1">
          <mxGeometry y="26" width="120" height="54" as="geometry" />
        </mxCell>
        <mxCell id="9Uq3U7OXlzmtbaHYE6mR-94" style="edgeStyle=orthogonalEdgeStyle;rounded=0;orthogonalLoop=1;jettySize=auto;html=1;dashed=1;endArrow=none;endFill=0;" parent="9Uq3U7OXlzmtbaHYE6mR-1" source="9Uq3U7OXlzmtbaHYE6mR-93" edge="1">
          <mxGeometry relative="1" as="geometry">
            <mxPoint x="1075" y="4190.833333333333" as="targetPoint" />
            <Array as="points">
              <mxPoint x="1075" y="3502" />
            </Array>
          </mxGeometry>
        </mxCell>
        <mxCell id="9Uq3U7OXlzmtbaHYE6mR-93" value="&lt;b&gt;ExchangeUtil&lt;/b&gt;" style="html=1;fillColor=#d5e8d4;strokeColor=#82b366;" parent="9Uq3U7OXlzmtbaHYE6mR-1" vertex="1">
          <mxGeometry x="1020" y="80" width="110" height="50" as="geometry" />
        </mxCell>
        <mxCell id="9Uq3U7OXlzmtbaHYE6mR-96" value="验签&lt;br&gt;解密" style="html=1;points=[];perimeter=orthogonalPerimeter;" parent="9Uq3U7OXlzmtbaHYE6mR-1" vertex="1">
          <mxGeometry x="525" y="1153" width="25" height="77" as="geometry" />
        </mxCell>
        <mxCell id="9Uq3U7OXlzmtbaHYE6mR-97" style="edgeStyle=orthogonalEdgeStyle;rounded=0;orthogonalLoop=1;jettySize=auto;html=1;dashed=1;endArrow=classic;endFill=1;" parent="9Uq3U7OXlzmtbaHYE6mR-1" source="9Uq3U7OXlzmtbaHYE6mR-99" edge="1">
          <mxGeometry relative="1" as="geometry">
            <mxPoint x="550" y="1163" as="targetPoint" />
          </mxGeometry>
        </mxCell>
        <mxCell id="9Uq3U7OXlzmtbaHYE6mR-98" value="No" style="edgeLabel;html=1;align=center;verticalAlign=middle;resizable=0;points=[];" parent="9Uq3U7OXlzmtbaHYE6mR-97" vertex="1" connectable="0">
          <mxGeometry x="-0.1273" relative="1" as="geometry">
            <mxPoint as="offset" />
          </mxGeometry>
        </mxCell>
        <mxCell id="9Uq3U7OXlzmtbaHYE6mR-99" value="Port.opSign是否开放" style="rhombus;fillColor=#e1d5e7;strokeColor=#9673a6;" parent="9Uq3U7OXlzmtbaHYE6mR-1" vertex="1">
          <mxGeometry x="540" y="1073" width="139" height="70" as="geometry" />
        </mxCell>
        <mxCell id="9Uq3U7OXlzmtbaHYE6mR-100" value="" style="edgeStyle=orthogonalEdgeStyle;html=1;align=left;spacingLeft=2;endArrow=block;rounded=0;entryX=0.5;entryY=0;dashed=1;entryDx=0;entryDy=0;" parent="9Uq3U7OXlzmtbaHYE6mR-1" target="9Uq3U7OXlzmtbaHYE6mR-99" edge="1">
          <mxGeometry relative="1" as="geometry">
            <mxPoint x="534" y="1060" as="sourcePoint" />
            <Array as="points" />
            <mxPoint x="535" y="1153" as="targetPoint" />
          </mxGeometry>
        </mxCell>
        <mxCell id="9Uq3U7OXlzmtbaHYE6mR-101" value="Yes" style="html=1;verticalAlign=bottom;endArrow=block;dashed=1;exitX=1;exitY=0.5;exitDx=0;exitDy=0;entryX=-0.02;entryY=0.157;entryDx=0;entryDy=0;entryPerimeter=0;" parent="9Uq3U7OXlzmtbaHYE6mR-1" source="9Uq3U7OXlzmtbaHYE6mR-99" target="9Uq3U7OXlzmtbaHYE6mR-201" edge="1">
          <mxGeometry x="-0.486" y="9" relative="1" as="geometry">
            <mxPoint x="643" y="1109" as="sourcePoint" />
            <mxPoint x="1350" y="1110" as="targetPoint" />
            <mxPoint as="offset" />
          </mxGeometry>
        </mxCell>
        <mxCell id="9Uq3U7OXlzmtbaHYE6mR-105" value="HTTP请求开放平台" style="edgeLabel;html=1;align=center;verticalAlign=middle;resizable=0;points=[];" parent="9Uq3U7OXlzmtbaHYE6mR-101" vertex="1" connectable="0">
          <mxGeometry x="0.116" y="-2" relative="1" as="geometry">
            <mxPoint as="offset" />
          </mxGeometry>
        </mxCell>
        <mxCell id="9Uq3U7OXlzmtbaHYE6mR-102" value="return&amp;nbsp; 私钥和验签私钥" style="html=1;verticalAlign=bottom;endArrow=open;dashed=1;endSize=8;" parent="9Uq3U7OXlzmtbaHYE6mR-1" edge="1">
          <mxGeometry x="0.0349" relative="1" as="geometry">
            <mxPoint x="550" y="1190" as="targetPoint" />
            <mxPoint x="1340" y="1190" as="sourcePoint" />
            <Array as="points">
              <mxPoint x="699" y="1190" />
            </Array>
            <mxPoint as="offset" />
          </mxGeometry>
        </mxCell>
        <mxCell id="9Uq3U7OXlzmtbaHYE6mR-107" value="insurerToCbsData" style="swimlane;fontStyle=0;childLayout=stackLayout;horizontal=1;startSize=26;fillColor=none;horizontalStack=0;resizeParent=1;resizeParentMax=0;resizeLast=0;collapsible=1;marginBottom=0;" parent="9Uq3U7OXlzmtbaHYE6mR-1" vertex="1">
          <mxGeometry x="640" y="1290" width="95" height="380" as="geometry">
            <mxRectangle x="640" y="1290" width="130" height="26" as="alternateBounds" />
          </mxGeometry>
        </mxCell>
        <mxCell id="9Uq3U7OXlzmtbaHYE6mR-108" value="insurerPort.id" style="text;strokeColor=none;fillColor=none;align=left;verticalAlign=top;spacingLeft=4;spacingRight=4;overflow=hidden;rotatable=0;points=[[0,0.5],[1,0.5]];portConstraint=eastwest;" parent="9Uq3U7OXlzmtbaHYE6mR-107" vertex="1">
          <mxGeometry y="26" width="95" height="24" as="geometry" />
        </mxCell>
        <mxCell id="9Uq3U7OXlzmtbaHYE6mR-109" value="prot.Id" style="text;strokeColor=none;fillColor=none;align=left;verticalAlign=top;spacingLeft=4;spacingRight=4;overflow=hidden;rotatable=0;points=[[0,0.5],[1,0.5]];portConstraint=eastwest;" parent="9Uq3U7OXlzmtbaHYE6mR-107" vertex="1">
          <mxGeometry y="50" width="95" height="26" as="geometry" />
        </mxCell>
        <mxCell id="9Uq3U7OXlzmtbaHYE6mR-110" value="jsonBody&#xa;&#xa;&#xa;入参Type" style="text;strokeColor=none;fillColor=none;align=left;verticalAlign=top;spacingLeft=4;spacingRight=4;overflow=hidden;rotatable=0;points=[[0,0.5],[1,0.5]];portConstraint=eastwest;" parent="9Uq3U7OXlzmtbaHYE6mR-107" vertex="1">
          <mxGeometry y="76" width="95" height="304" as="geometry" />
        </mxCell>
        <mxCell id="9Uq3U7OXlzmtbaHYE6mR-112" style="edgeStyle=orthogonalEdgeStyle;rounded=0;orthogonalLoop=1;jettySize=auto;html=1;dashed=1;endArrow=none;endFill=0;startArrow=classic;startFill=1;" parent="9Uq3U7OXlzmtbaHYE6mR-1" source="9Uq3U7OXlzmtbaHYE6mR-108" edge="1">
          <mxGeometry relative="1" as="geometry">
            <mxPoint x="530" y="1328" as="targetPoint" />
          </mxGeometry>
        </mxCell>
        <mxCell id="9Uq3U7OXlzmtbaHYE6mR-113" value="保司转化为中介key" style="text;html=1;align=center;verticalAlign=middle;resizable=0;points=[];autosize=1;" parent="9Uq3U7OXlzmtbaHYE6mR-1" vertex="1">
          <mxGeometry x="520" y="1300" width="120" height="20" as="geometry" />
        </mxCell>
        <mxCell id="9Uq3U7OXlzmtbaHYE6mR-114" style="edgeStyle=orthogonalEdgeStyle;rounded=0;orthogonalLoop=1;jettySize=auto;html=1;dashed=1;startArrow=none;startFill=0;endArrow=classic;endFill=1;entryX=1.2;entryY=0.719;entryDx=0;entryDy=0;entryPerimeter=0;" parent="9Uq3U7OXlzmtbaHYE6mR-1" edge="1">
          <mxGeometry relative="1" as="geometry">
            <mxPoint x="532" y="1641.5" as="targetPoint" />
            <mxPoint x="640" y="1641.5" as="sourcePoint" />
            <Array as="points">
              <mxPoint x="585" y="1642" />
            </Array>
          </mxGeometry>
        </mxCell>
        <mxCell id="9Uq3U7OXlzmtbaHYE6mR-115" value="return" style="edgeLabel;html=1;align=center;verticalAlign=middle;resizable=0;points=[];" parent="9Uq3U7OXlzmtbaHYE6mR-114" vertex="1" connectable="0">
          <mxGeometry x="0.2814" y="1" relative="1" as="geometry">
            <mxPoint as="offset" />
          </mxGeometry>
        </mxCell>
        <mxCell id="9Uq3U7OXlzmtbaHYE6mR-125" value="cbsEncry" style="swimlane;fontStyle=0;childLayout=stackLayout;horizontal=1;startSize=26;fillColor=none;horizontalStack=0;resizeParent=1;resizeParentMax=0;resizeLast=0;collapsible=1;marginBottom=0;" parent="9Uq3U7OXlzmtbaHYE6mR-1" vertex="1">
          <mxGeometry x="640" y="1757" width="95" height="102" as="geometry">
            <mxRectangle x="640" y="1290" width="130" height="26" as="alternateBounds" />
          </mxGeometry>
        </mxCell>
        <mxCell id="9Uq3U7OXlzmtbaHYE6mR-126" value="centerMap" style="text;strokeColor=none;fillColor=none;align=left;verticalAlign=top;spacingLeft=4;spacingRight=4;overflow=hidden;rotatable=0;points=[[0,0.5],[1,0.5]];portConstraint=eastwest;" parent="9Uq3U7OXlzmtbaHYE6mR-125" vertex="1">
          <mxGeometry y="26" width="95" height="24" as="geometry" />
        </mxCell>
        <mxCell id="9Uq3U7OXlzmtbaHYE6mR-127" value="prot.Id" style="text;strokeColor=none;fillColor=none;align=left;verticalAlign=top;spacingLeft=4;spacingRight=4;overflow=hidden;rotatable=0;points=[[0,0.5],[1,0.5]];portConstraint=eastwest;" parent="9Uq3U7OXlzmtbaHYE6mR-125" vertex="1">
          <mxGeometry y="50" width="95" height="26" as="geometry" />
        </mxCell>
        <mxCell id="9Uq3U7OXlzmtbaHYE6mR-128" value="入参Type" style="text;strokeColor=none;fillColor=none;align=left;verticalAlign=top;spacingLeft=4;spacingRight=4;overflow=hidden;rotatable=0;points=[[0,0.5],[1,0.5]];portConstraint=eastwest;" parent="9Uq3U7OXlzmtbaHYE6mR-125" vertex="1">
          <mxGeometry y="76" width="95" height="26" as="geometry" />
        </mxCell>
        <mxCell id="9Uq3U7OXlzmtbaHYE6mR-129" style="edgeStyle=orthogonalEdgeStyle;rounded=0;orthogonalLoop=1;jettySize=auto;html=1;dashed=1;endArrow=none;endFill=0;startArrow=classic;startFill=1;" parent="9Uq3U7OXlzmtbaHYE6mR-1" source="9Uq3U7OXlzmtbaHYE6mR-126" edge="1">
          <mxGeometry relative="1" as="geometry">
            <mxPoint x="530" y="1795" as="targetPoint" />
          </mxGeometry>
        </mxCell>
        <mxCell id="9Uq3U7OXlzmtbaHYE6mR-130" value="处理加密" style="text;html=1;align=center;verticalAlign=middle;resizable=0;points=[];autosize=1;" parent="9Uq3U7OXlzmtbaHYE6mR-1" vertex="1">
          <mxGeometry x="541" y="1767" width="60" height="20" as="geometry" />
        </mxCell>
        <mxCell id="9Uq3U7OXlzmtbaHYE6mR-131" style="edgeStyle=orthogonalEdgeStyle;rounded=0;orthogonalLoop=1;jettySize=auto;html=1;dashed=1;startArrow=none;startFill=0;endArrow=classic;endFill=1;entryX=1.2;entryY=0.719;entryDx=0;entryDy=0;entryPerimeter=0;" parent="9Uq3U7OXlzmtbaHYE6mR-1" source="9Uq3U7OXlzmtbaHYE6mR-128" edge="1">
          <mxGeometry relative="1" as="geometry">
            <mxPoint x="532" y="1845.5" as="targetPoint" />
          </mxGeometry>
        </mxCell>
        <mxCell id="9Uq3U7OXlzmtbaHYE6mR-132" value="return" style="edgeLabel;html=1;align=center;verticalAlign=middle;resizable=0;points=[];" parent="9Uq3U7OXlzmtbaHYE6mR-131" vertex="1" connectable="0">
          <mxGeometry x="0.2814" y="1" relative="1" as="geometry">
            <mxPoint as="offset" />
          </mxGeometry>
        </mxCell>
        <mxCell id="9Uq3U7OXlzmtbaHYE6mR-133" value="" style="html=1;points=[];perimeter=orthogonalPerimeter;" parent="9Uq3U7OXlzmtbaHYE6mR-1" vertex="1">
          <mxGeometry x="531" y="2041" width="10" height="45" as="geometry" />
        </mxCell>
        <mxCell id="9Uq3U7OXlzmtbaHYE6mR-134" style="edgeStyle=orthogonalEdgeStyle;rounded=0;orthogonalLoop=1;jettySize=auto;html=1;dashed=1;endArrow=classic;endFill=1;" parent="9Uq3U7OXlzmtbaHYE6mR-1" source="9Uq3U7OXlzmtbaHYE6mR-136" edge="1">
          <mxGeometry relative="1" as="geometry">
            <mxPoint x="545" y="2046" as="targetPoint" />
          </mxGeometry>
        </mxCell>
        <mxCell id="9Uq3U7OXlzmtbaHYE6mR-135" value="No" style="edgeLabel;html=1;align=center;verticalAlign=middle;resizable=0;points=[];" parent="9Uq3U7OXlzmtbaHYE6mR-134" vertex="1" connectable="0">
          <mxGeometry x="-0.1273" relative="1" as="geometry">
            <mxPoint as="offset" />
          </mxGeometry>
        </mxCell>
        <mxCell id="9Uq3U7OXlzmtbaHYE6mR-136" value="是否过滤空节点" style="rhombus;fillColor=#e1d5e7;strokeColor=#9673a6;" parent="9Uq3U7OXlzmtbaHYE6mR-1" vertex="1">
          <mxGeometry x="545" y="1969" width="115" height="57" as="geometry" />
        </mxCell>
        <mxCell id="9Uq3U7OXlzmtbaHYE6mR-137" value="" style="edgeStyle=orthogonalEdgeStyle;html=1;align=left;spacingLeft=2;endArrow=block;rounded=0;entryX=0.5;entryY=0;dashed=1;entryDx=0;entryDy=0;" parent="9Uq3U7OXlzmtbaHYE6mR-1" target="9Uq3U7OXlzmtbaHYE6mR-136" edge="1">
          <mxGeometry relative="1" as="geometry">
            <mxPoint x="530" y="1940" as="sourcePoint" />
            <Array as="points">
              <mxPoint x="603" y="1940" />
            </Array>
            <mxPoint x="540" y="2001" as="targetPoint" />
          </mxGeometry>
        </mxCell>
        <mxCell id="9Uq3U7OXlzmtbaHYE6mR-138" value="Yes" style="html=1;verticalAlign=bottom;endArrow=block;entryX=0;entryY=0;dashed=1;exitX=1;exitY=0.5;exitDx=0;exitDy=0;entryDx=0;entryDy=0;" parent="9Uq3U7OXlzmtbaHYE6mR-1" source="9Uq3U7OXlzmtbaHYE6mR-136" target="9Uq3U7OXlzmtbaHYE6mR-140" edge="1">
          <mxGeometry relative="1" as="geometry">
            <mxPoint x="648" y="2005" as="sourcePoint" />
            <mxPoint x="908" y="2005" as="targetPoint" />
          </mxGeometry>
        </mxCell>
        <mxCell id="9Uq3U7OXlzmtbaHYE6mR-139" value="return" style="html=1;verticalAlign=bottom;endArrow=open;dashed=1;endSize=8;" parent="9Uq3U7OXlzmtbaHYE6mR-1" edge="1">
          <mxGeometry x="0.0799" relative="1" as="geometry">
            <mxPoint x="545" y="2079" as="targetPoint" />
            <mxPoint x="1121" y="2079" as="sourcePoint" />
            <Array as="points">
              <mxPoint x="705" y="2079" />
            </Array>
            <mxPoint as="offset" />
          </mxGeometry>
        </mxCell>
        <mxCell id="9Uq3U7OXlzmtbaHYE6mR-140" value="filterNone" style="swimlane;fontStyle=0;childLayout=stackLayout;horizontal=1;startSize=26;fillColor=#ffe6cc;horizontalStack=0;resizeParent=1;resizeParentMax=0;resizeLast=0;collapsible=1;marginBottom=0;strokeColor=#d79b00;" parent="9Uq3U7OXlzmtbaHYE6mR-1" vertex="1">
          <mxGeometry x="1121" y="2000" width="110" height="80" as="geometry" />
        </mxCell>
        <mxCell id="9Uq3U7OXlzmtbaHYE6mR-141" value="jsonStr: String " style="text;strokeColor=#d79b00;fillColor=#ffe6cc;align=left;verticalAlign=top;spacingLeft=4;spacingRight=4;overflow=hidden;rotatable=0;points=[[0,0.5],[1,0.5]];portConstraint=eastwest;" parent="9Uq3U7OXlzmtbaHYE6mR-140" vertex="1">
          <mxGeometry y="26" width="110" height="54" as="geometry" />
        </mxCell>
        <mxCell id="9Uq3U7OXlzmtbaHYE6mR-368" style="edgeStyle=orthogonalEdgeStyle;rounded=0;orthogonalLoop=1;jettySize=auto;html=1;startArrow=none;startFill=0;endArrow=none;endFill=0;dashed=1;entryX=0.942;entryY=1.021;entryDx=0;entryDy=0;entryPerimeter=0;" parent="9Uq3U7OXlzmtbaHYE6mR-1" source="9Uq3U7OXlzmtbaHYE6mR-142" target="9Uq3U7OXlzmtbaHYE6mR-141" edge="1">
          <mxGeometry relative="1" as="geometry">
            <mxPoint x="1235" y="2100" as="targetPoint" />
            <Array as="points">
              <mxPoint x="1230" y="2080" />
              <mxPoint x="1235" y="2080" />
              <mxPoint x="1235" y="2081" />
            </Array>
          </mxGeometry>
        </mxCell>
        <mxCell id="9Uq3U7OXlzmtbaHYE6mR-142" value="&lt;b&gt;JsonUtilO&lt;/b&gt;" style="html=1;fillColor=#d5e8d4;strokeColor=#82b366;" parent="9Uq3U7OXlzmtbaHYE6mR-1" vertex="1">
          <mxGeometry x="1180" y="80" width="110" height="50" as="geometry" />
        </mxCell>
        <mxCell id="9Uq3U7OXlzmtbaHYE6mR-145" value="" style="html=1;points=[];perimeter=orthogonalPerimeter;" parent="9Uq3U7OXlzmtbaHYE6mR-1" vertex="1">
          <mxGeometry x="525" y="2241" width="10" height="45" as="geometry" />
        </mxCell>
        <mxCell id="9Uq3U7OXlzmtbaHYE6mR-146" style="edgeStyle=orthogonalEdgeStyle;rounded=0;orthogonalLoop=1;jettySize=auto;html=1;dashed=1;endArrow=classic;endFill=1;" parent="9Uq3U7OXlzmtbaHYE6mR-1" source="9Uq3U7OXlzmtbaHYE6mR-148" edge="1">
          <mxGeometry relative="1" as="geometry">
            <mxPoint x="540" y="2251" as="targetPoint" />
          </mxGeometry>
        </mxCell>
        <mxCell id="9Uq3U7OXlzmtbaHYE6mR-147" value="No" style="edgeLabel;html=1;align=center;verticalAlign=middle;resizable=0;points=[];" parent="9Uq3U7OXlzmtbaHYE6mR-146" vertex="1" connectable="0">
          <mxGeometry x="-0.1273" relative="1" as="geometry">
            <mxPoint as="offset" />
          </mxGeometry>
        </mxCell>
        <mxCell id="9Uq3U7OXlzmtbaHYE6mR-148" value="port&#xa;接口入参type是否XML" style="rhombus;fillColor=#e1d5e7;strokeColor=#9673a6;" parent="9Uq3U7OXlzmtbaHYE6mR-1" vertex="1">
          <mxGeometry x="540" y="2161" width="139" height="70" as="geometry" />
        </mxCell>
        <mxCell id="9Uq3U7OXlzmtbaHYE6mR-149" value="" style="edgeStyle=orthogonalEdgeStyle;html=1;align=left;spacingLeft=2;endArrow=block;rounded=0;entryX=0.5;entryY=0;dashed=1;entryDx=0;entryDy=0;" parent="9Uq3U7OXlzmtbaHYE6mR-1" target="9Uq3U7OXlzmtbaHYE6mR-148" edge="1">
          <mxGeometry relative="1" as="geometry">
            <mxPoint x="534" y="2148" as="sourcePoint" />
            <Array as="points" />
            <mxPoint x="535" y="2241" as="targetPoint" />
          </mxGeometry>
        </mxCell>
        <mxCell id="9Uq3U7OXlzmtbaHYE6mR-150" value="Yes" style="html=1;verticalAlign=bottom;endArrow=block;entryX=0;entryY=0;dashed=1;exitX=1;exitY=0.5;exitDx=0;exitDy=0;entryDx=0;entryDy=0;" parent="9Uq3U7OXlzmtbaHYE6mR-1" source="9Uq3U7OXlzmtbaHYE6mR-148" target="9Uq3U7OXlzmtbaHYE6mR-152" edge="1">
          <mxGeometry relative="1" as="geometry">
            <mxPoint x="643" y="2197" as="sourcePoint" />
            <mxPoint x="903" y="2197" as="targetPoint" />
          </mxGeometry>
        </mxCell>
        <mxCell id="9Uq3U7OXlzmtbaHYE6mR-151" value="return" style="html=1;verticalAlign=bottom;endArrow=open;dashed=1;endSize=8;exitX=-0.029;exitY=1.077;exitDx=0;exitDy=0;exitPerimeter=0;" parent="9Uq3U7OXlzmtbaHYE6mR-1" edge="1">
          <mxGeometry x="-0.0132" y="-8" relative="1" as="geometry">
            <mxPoint x="539" y="2278" as="targetPoint" />
            <mxPoint x="955.52" y="2278.002" as="sourcePoint" />
            <Array as="points">
              <mxPoint x="699" y="2278" />
            </Array>
            <mxPoint as="offset" />
          </mxGeometry>
        </mxCell>
        <mxCell id="9Uq3U7OXlzmtbaHYE6mR-152" value="jsonToXml" style="swimlane;fontStyle=0;childLayout=stackLayout;horizontal=1;startSize=26;fillColor=#ffe6cc;horizontalStack=0;resizeParent=1;resizeParentMax=0;resizeLast=0;collapsible=1;marginBottom=0;strokeColor=#d79b00;" parent="9Uq3U7OXlzmtbaHYE6mR-1" vertex="1">
          <mxGeometry x="955" y="2198" width="120" height="80" as="geometry" />
        </mxCell>
        <mxCell id="9Uq3U7OXlzmtbaHYE6mR-153" value="Content：String" style="text;strokeColor=#d79b00;fillColor=#ffe6cc;align=left;verticalAlign=top;spacingLeft=4;spacingRight=4;overflow=hidden;rotatable=0;points=[[0,0.5],[1,0.5]];portConstraint=eastwest;" parent="9Uq3U7OXlzmtbaHYE6mR-152" vertex="1">
          <mxGeometry y="26" width="120" height="54" as="geometry" />
        </mxCell>
        <mxCell id="9Uq3U7OXlzmtbaHYE6mR-155" value="" style="html=1;points=[];perimeter=orthogonalPerimeter;" parent="9Uq3U7OXlzmtbaHYE6mR-1" vertex="1">
          <mxGeometry x="525" y="2441" width="10" height="45" as="geometry" />
        </mxCell>
        <mxCell id="9Uq3U7OXlzmtbaHYE6mR-156" style="edgeStyle=orthogonalEdgeStyle;rounded=0;orthogonalLoop=1;jettySize=auto;html=1;dashed=1;endArrow=classic;endFill=1;" parent="9Uq3U7OXlzmtbaHYE6mR-1" source="9Uq3U7OXlzmtbaHYE6mR-158" edge="1">
          <mxGeometry relative="1" as="geometry">
            <mxPoint x="540" y="2451" as="targetPoint" />
          </mxGeometry>
        </mxCell>
        <mxCell id="9Uq3U7OXlzmtbaHYE6mR-157" value="No" style="edgeLabel;html=1;align=center;verticalAlign=middle;resizable=0;points=[];" parent="9Uq3U7OXlzmtbaHYE6mR-156" vertex="1" connectable="0">
          <mxGeometry x="-0.1273" relative="1" as="geometry">
            <mxPoint as="offset" />
          </mxGeometry>
        </mxCell>
        <mxCell id="9Uq3U7OXlzmtbaHYE6mR-158" value="是否存在错误信息" style="rhombus;fillColor=#e1d5e7;strokeColor=#9673a6;" parent="9Uq3U7OXlzmtbaHYE6mR-1" vertex="1">
          <mxGeometry x="540" y="2361" width="100" height="70" as="geometry" />
        </mxCell>
        <mxCell id="9Uq3U7OXlzmtbaHYE6mR-159" value="" style="edgeStyle=orthogonalEdgeStyle;html=1;align=left;spacingLeft=2;endArrow=block;rounded=0;entryX=0.5;entryY=0;dashed=1;entryDx=0;entryDy=0;" parent="9Uq3U7OXlzmtbaHYE6mR-1" target="9Uq3U7OXlzmtbaHYE6mR-158" edge="1">
          <mxGeometry relative="1" as="geometry">
            <mxPoint x="534" y="2348" as="sourcePoint" />
            <Array as="points" />
            <mxPoint x="535" y="2441" as="targetPoint" />
          </mxGeometry>
        </mxCell>
        <mxCell id="9Uq3U7OXlzmtbaHYE6mR-160" value="Yes" style="html=1;verticalAlign=bottom;endArrow=block;entryX=0;entryY=0;dashed=1;exitX=1;exitY=0.5;exitDx=0;exitDy=0;entryDx=0;entryDy=0;" parent="9Uq3U7OXlzmtbaHYE6mR-1" source="9Uq3U7OXlzmtbaHYE6mR-158" edge="1">
          <mxGeometry relative="1" as="geometry">
            <mxPoint x="643" y="2397" as="sourcePoint" />
            <mxPoint x="680" y="2398" as="targetPoint" />
          </mxGeometry>
        </mxCell>
        <mxCell id="9Uq3U7OXlzmtbaHYE6mR-161" value="" style="html=1;verticalAlign=bottom;endArrow=open;dashed=1;endSize=8;" parent="9Uq3U7OXlzmtbaHYE6mR-1" target="9Uq3U7OXlzmtbaHYE6mR-21" edge="1">
          <mxGeometry x="0.5135" y="-6" relative="1" as="geometry">
            <mxPoint x="540" y="2548" as="targetPoint" />
            <mxPoint x="966" y="2548" as="sourcePoint" />
            <Array as="points" />
            <mxPoint as="offset" />
          </mxGeometry>
        </mxCell>
        <mxCell id="9Uq3U7OXlzmtbaHYE6mR-164" value="return 错误信息" style="edgeLabel;html=1;align=center;verticalAlign=middle;resizable=0;points=[];" parent="9Uq3U7OXlzmtbaHYE6mR-161" vertex="1" connectable="0">
          <mxGeometry x="-0.1467" y="-1" relative="1" as="geometry">
            <mxPoint x="-96.5" y="9.280000000000001" as="offset" />
          </mxGeometry>
        </mxCell>
        <mxCell id="9Uq3U7OXlzmtbaHYE6mR-165" value="getErrorData" style="swimlane;fontStyle=0;childLayout=stackLayout;horizontal=1;startSize=26;fillColor=#ffe6cc;horizontalStack=0;resizeParent=1;resizeParentMax=0;resizeLast=0;collapsible=1;marginBottom=0;strokeColor=#d79b00;" parent="9Uq3U7OXlzmtbaHYE6mR-1" vertex="1">
          <mxGeometry x="679" y="2400" width="61" height="104" as="geometry" />
        </mxCell>
        <mxCell id="9Uq3U7OXlzmtbaHYE6mR-166" value="ipId" style="text;strokeColor=#d79b00;fillColor=#ffe6cc;align=left;verticalAlign=top;spacingLeft=4;spacingRight=4;overflow=hidden;rotatable=0;points=[[0,0.5],[1,0.5]];portConstraint=eastwest;" parent="9Uq3U7OXlzmtbaHYE6mR-165" vertex="1">
          <mxGeometry y="26" width="61" height="26" as="geometry" />
        </mxCell>
        <mxCell id="9Uq3U7OXlzmtbaHYE6mR-167" value="error" style="text;strokeColor=#d79b00;fillColor=#ffe6cc;align=left;verticalAlign=top;spacingLeft=4;spacingRight=4;overflow=hidden;rotatable=0;points=[[0,0.5],[1,0.5]];portConstraint=eastwest;" parent="9Uq3U7OXlzmtbaHYE6mR-165" vertex="1">
          <mxGeometry y="52" width="61" height="26" as="geometry" />
        </mxCell>
        <mxCell id="9Uq3U7OXlzmtbaHYE6mR-168" value="type" style="text;strokeColor=#d79b00;fillColor=#ffe6cc;align=left;verticalAlign=top;spacingLeft=4;spacingRight=4;overflow=hidden;rotatable=0;points=[[0,0.5],[1,0.5]];portConstraint=eastwest;" parent="9Uq3U7OXlzmtbaHYE6mR-165" vertex="1">
          <mxGeometry y="78" width="61" height="26" as="geometry" />
        </mxCell>
        <mxCell id="9Uq3U7OXlzmtbaHYE6mR-171" style="edgeStyle=orthogonalEdgeStyle;rounded=0;orthogonalLoop=1;jettySize=auto;html=1;entryX=1;entryY=0.5;entryDx=0;entryDy=0;dashed=1;startArrow=none;startFill=0;endArrow=none;endFill=0;" parent="9Uq3U7OXlzmtbaHYE6mR-1" source="9Uq3U7OXlzmtbaHYE6mR-170" target="9Uq3U7OXlzmtbaHYE6mR-168" edge="1">
          <mxGeometry relative="1" as="geometry">
            <Array as="points">
              <mxPoint x="782" y="2489" />
              <mxPoint x="782" y="2491" />
            </Array>
          </mxGeometry>
        </mxCell>
        <mxCell id="9Uq3U7OXlzmtbaHYE6mR-170" value="insurerPort出参&#xa;是否XML" style="rhombus;fillColor=#e1d5e7;strokeColor=#9673a6;" parent="9Uq3U7OXlzmtbaHYE6mR-1" vertex="1">
          <mxGeometry x="825" y="2451" width="90" height="76" as="geometry" />
        </mxCell>
        <mxCell id="9Uq3U7OXlzmtbaHYE6mR-173" value="jsonToXml" style="swimlane;fontStyle=0;childLayout=stackLayout;horizontal=1;startSize=26;fillColor=#ffe6cc;horizontalStack=0;resizeParent=1;resizeParentMax=0;resizeLast=0;collapsible=1;marginBottom=0;strokeColor=#d79b00;" parent="9Uq3U7OXlzmtbaHYE6mR-1" vertex="1">
          <mxGeometry x="965" y="2447" width="110" height="100" as="geometry" />
        </mxCell>
        <mxCell id="9Uq3U7OXlzmtbaHYE6mR-174" value="Content：String" style="text;strokeColor=#d79b00;fillColor=#ffe6cc;align=left;verticalAlign=top;spacingLeft=4;spacingRight=4;overflow=hidden;rotatable=0;points=[[0,0.5],[1,0.5]];portConstraint=eastwest;" parent="9Uq3U7OXlzmtbaHYE6mR-173" vertex="1">
          <mxGeometry y="26" width="110" height="74" as="geometry" />
        </mxCell>
        <mxCell id="9Uq3U7OXlzmtbaHYE6mR-175" value="Yes" style="text;html=1;align=center;verticalAlign=middle;resizable=0;points=[];autosize=1;" parent="9Uq3U7OXlzmtbaHYE6mR-1" vertex="1">
          <mxGeometry x="920" y="2458" width="40" height="20" as="geometry" />
        </mxCell>
        <mxCell id="9Uq3U7OXlzmtbaHYE6mR-183" style="edgeStyle=orthogonalEdgeStyle;rounded=0;orthogonalLoop=1;jettySize=auto;html=1;dashed=1;endArrow=classic;endFill=1;" parent="9Uq3U7OXlzmtbaHYE6mR-1" edge="1">
          <mxGeometry relative="1" as="geometry">
            <mxPoint x="820" y="2548" as="targetPoint" />
            <mxPoint x="871" y="2527" as="sourcePoint" />
            <Array as="points">
              <mxPoint x="871" y="2548" />
            </Array>
          </mxGeometry>
        </mxCell>
        <mxCell id="9Uq3U7OXlzmtbaHYE6mR-184" value="No" style="edgeLabel;html=1;align=center;verticalAlign=middle;resizable=0;points=[];" parent="9Uq3U7OXlzmtbaHYE6mR-183" vertex="1" connectable="0">
          <mxGeometry x="-0.1273" relative="1" as="geometry">
            <mxPoint as="offset" />
          </mxGeometry>
        </mxCell>
        <mxCell id="9Uq3U7OXlzmtbaHYE6mR-185" value="" style="html=1;points=[];perimeter=orthogonalPerimeter;" parent="9Uq3U7OXlzmtbaHYE6mR-1" vertex="1">
          <mxGeometry x="531" y="2721" width="10" height="45" as="geometry" />
        </mxCell>
        <mxCell id="9Uq3U7OXlzmtbaHYE6mR-186" style="edgeStyle=orthogonalEdgeStyle;rounded=0;orthogonalLoop=1;jettySize=auto;html=1;dashed=1;endArrow=classic;endFill=1;" parent="9Uq3U7OXlzmtbaHYE6mR-1" source="9Uq3U7OXlzmtbaHYE6mR-188" edge="1">
          <mxGeometry relative="1" as="geometry">
            <mxPoint x="546" y="2731" as="targetPoint" />
          </mxGeometry>
        </mxCell>
        <mxCell id="9Uq3U7OXlzmtbaHYE6mR-187" value="No" style="edgeLabel;html=1;align=center;verticalAlign=middle;resizable=0;points=[];" parent="9Uq3U7OXlzmtbaHYE6mR-186" vertex="1" connectable="0">
          <mxGeometry x="-0.1273" relative="1" as="geometry">
            <mxPoint as="offset" />
          </mxGeometry>
        </mxCell>
        <mxCell id="9Uq3U7OXlzmtbaHYE6mR-188" value="Port&#xa;是否整体加密" style="rhombus;fillColor=#e1d5e7;strokeColor=#9673a6;" parent="9Uq3U7OXlzmtbaHYE6mR-1" vertex="1">
          <mxGeometry x="546" y="2641" width="70" height="70" as="geometry" />
        </mxCell>
        <mxCell id="9Uq3U7OXlzmtbaHYE6mR-189" value="" style="edgeStyle=orthogonalEdgeStyle;html=1;align=left;spacingLeft=2;endArrow=block;rounded=0;entryX=0.5;entryY=0;dashed=1;entryDx=0;entryDy=0;" parent="9Uq3U7OXlzmtbaHYE6mR-1" target="9Uq3U7OXlzmtbaHYE6mR-188" edge="1">
          <mxGeometry relative="1" as="geometry">
            <mxPoint x="530" y="2628" as="sourcePoint" />
            <Array as="points" />
            <mxPoint x="541" y="2721" as="targetPoint" />
          </mxGeometry>
        </mxCell>
        <mxCell id="9Uq3U7OXlzmtbaHYE6mR-190" value="Yes" style="html=1;verticalAlign=bottom;endArrow=block;entryX=0;entryY=0;dashed=1;exitX=1;exitY=0.5;exitDx=0;exitDy=0;entryDx=0;entryDy=0;" parent="9Uq3U7OXlzmtbaHYE6mR-1" source="9Uq3U7OXlzmtbaHYE6mR-188" target="9Uq3U7OXlzmtbaHYE6mR-192" edge="1">
          <mxGeometry relative="1" as="geometry">
            <mxPoint x="649" y="2677" as="sourcePoint" />
            <mxPoint x="909" y="2677" as="targetPoint" />
          </mxGeometry>
        </mxCell>
        <mxCell id="9Uq3U7OXlzmtbaHYE6mR-191" value="return" style="html=1;verticalAlign=bottom;endArrow=open;dashed=1;endSize=8;exitX=-0.029;exitY=1.077;exitDx=0;exitDy=0;exitPerimeter=0;" parent="9Uq3U7OXlzmtbaHYE6mR-1" source="9Uq3U7OXlzmtbaHYE6mR-195" edge="1">
          <mxGeometry x="0.1205" relative="1" as="geometry">
            <mxPoint x="535" y="2784" as="targetPoint" />
            <mxPoint x="905" y="2784" as="sourcePoint" />
            <Array as="points">
              <mxPoint x="705" y="2784" />
            </Array>
            <mxPoint as="offset" />
          </mxGeometry>
        </mxCell>
        <mxCell id="9Uq3U7OXlzmtbaHYE6mR-192" value="encryData" style="swimlane;fontStyle=0;childLayout=stackLayout;horizontal=1;startSize=26;fillColor=#ffe6cc;horizontalStack=0;resizeParent=1;resizeParentMax=0;resizeLast=0;collapsible=1;marginBottom=0;strokeColor=#d79b00;" parent="9Uq3U7OXlzmtbaHYE6mR-1" vertex="1">
          <mxGeometry x="800" y="2678" width="120" height="104" as="geometry" />
        </mxCell>
        <mxCell id="9Uq3U7OXlzmtbaHYE6mR-193" value="Port.加密标识" style="text;strokeColor=#d79b00;fillColor=#ffe6cc;align=left;verticalAlign=top;spacingLeft=4;spacingRight=4;overflow=hidden;rotatable=0;points=[[0,0.5],[1,0.5]];portConstraint=eastwest;" parent="9Uq3U7OXlzmtbaHYE6mR-192" vertex="1">
          <mxGeometry y="26" width="120" height="26" as="geometry" />
        </mxCell>
        <mxCell id="9Uq3U7OXlzmtbaHYE6mR-194" value=" bodyStr" style="text;strokeColor=#d79b00;fillColor=#ffe6cc;align=left;verticalAlign=top;spacingLeft=4;spacingRight=4;overflow=hidden;rotatable=0;points=[[0,0.5],[1,0.5]];portConstraint=eastwest;" parent="9Uq3U7OXlzmtbaHYE6mR-192" vertex="1">
          <mxGeometry y="52" width="120" height="26" as="geometry" />
        </mxCell>
        <mxCell id="9Uq3U7OXlzmtbaHYE6mR-195" value="入参Type" style="text;strokeColor=#d79b00;fillColor=#ffe6cc;align=left;verticalAlign=top;spacingLeft=4;spacingRight=4;overflow=hidden;rotatable=0;points=[[0,0.5],[1,0.5]];portConstraint=eastwest;" parent="9Uq3U7OXlzmtbaHYE6mR-192" vertex="1">
          <mxGeometry y="78" width="120" height="26" as="geometry" />
        </mxCell>
        <mxCell id="9Uq3U7OXlzmtbaHYE6mR-197" style="edgeStyle=orthogonalEdgeStyle;rounded=0;orthogonalLoop=1;jettySize=auto;html=1;startArrow=none;startFill=0;endArrow=classic;endFill=1;entryX=0;entryY=0.25;entryDx=0;entryDy=0;" parent="9Uq3U7OXlzmtbaHYE6mR-1" source="9Uq3U7OXlzmtbaHYE6mR-196" target="9Uq3U7OXlzmtbaHYE6mR-203" edge="1">
          <mxGeometry relative="1" as="geometry">
            <mxPoint x="1300" y="2848" as="targetPoint" />
            <Array as="points">
              <mxPoint x="840" y="2848" />
              <mxPoint x="840" y="2848" />
            </Array>
          </mxGeometry>
        </mxCell>
        <mxCell id="9Uq3U7OXlzmtbaHYE6mR-198" value="Webservice" style="edgeLabel;html=1;align=center;verticalAlign=middle;resizable=0;points=[];" parent="9Uq3U7OXlzmtbaHYE6mR-197" vertex="1" connectable="0">
          <mxGeometry x="-0.1818" y="-2" relative="1" as="geometry">
            <mxPoint as="offset" />
          </mxGeometry>
        </mxCell>
        <mxCell id="9Uq3U7OXlzmtbaHYE6mR-205" style="edgeStyle=orthogonalEdgeStyle;rounded=0;orthogonalLoop=1;jettySize=auto;html=1;dashed=1;startArrow=none;startFill=0;endArrow=classic;endFill=1;entryX=0;entryY=0.5;entryDx=0;entryDy=0;entryPerimeter=0;exitX=1;exitY=0.124;exitDx=0;exitDy=0;exitPerimeter=0;" parent="9Uq3U7OXlzmtbaHYE6mR-1" source="9Uq3U7OXlzmtbaHYE6mR-196" target="9Uq3U7OXlzmtbaHYE6mR-206" edge="1">
          <mxGeometry relative="1" as="geometry">
            <mxPoint x="820" y="2886" as="targetPoint" />
            <mxPoint x="690" y="2886" as="sourcePoint" />
            <Array as="points" />
          </mxGeometry>
        </mxCell>
        <mxCell id="9Uq3U7OXlzmtbaHYE6mR-196" value="Switch(port.请求类型)" style="html=1;" parent="9Uq3U7OXlzmtbaHYE6mR-1" vertex="1">
          <mxGeometry x="530" y="2828" width="130" height="490" as="geometry" />
        </mxCell>
        <mxCell id="9Uq3U7OXlzmtbaHYE6mR-200" style="edgeStyle=orthogonalEdgeStyle;rounded=0;orthogonalLoop=1;jettySize=auto;html=1;dashed=1;startArrow=none;startFill=0;endArrow=none;endFill=0;" parent="9Uq3U7OXlzmtbaHYE6mR-1" source="9Uq3U7OXlzmtbaHYE6mR-199" edge="1">
          <mxGeometry relative="1" as="geometry">
            <mxPoint x="1410" y="3320" as="targetPoint" />
            <Array as="points">
              <mxPoint x="1410" y="2800" />
              <mxPoint x="1410" y="2800" />
            </Array>
          </mxGeometry>
        </mxCell>
        <mxCell id="9Uq3U7OXlzmtbaHYE6mR-199" value="&lt;b&gt;HttpRequestor&lt;/b&gt;" style="html=1;fillColor=#d5e8d4;strokeColor=#82b366;" parent="9Uq3U7OXlzmtbaHYE6mR-1" vertex="1">
          <mxGeometry x="1350" y="80" width="110" height="50" as="geometry" />
        </mxCell>
        <mxCell id="9Uq3U7OXlzmtbaHYE6mR-201" value="doPost" style="swimlane;fontStyle=0;childLayout=stackLayout;horizontal=1;startSize=26;fillColor=#ffe6cc;horizontalStack=0;resizeParent=1;resizeParentMax=0;resizeLast=0;collapsible=1;marginBottom=0;strokeColor=#d79b00;" parent="9Uq3U7OXlzmtbaHYE6mR-1" vertex="1">
          <mxGeometry x="1310" y="1090" width="100" height="100" as="geometry" />
        </mxCell>
        <mxCell id="9Uq3U7OXlzmtbaHYE6mR-202" value="openKey&#xa;&#xa;chaId" style="text;strokeColor=#d79b00;fillColor=#ffe6cc;align=left;verticalAlign=top;spacingLeft=4;spacingRight=4;overflow=hidden;rotatable=0;points=[[0,0.5],[1,0.5]];portConstraint=eastwest;" parent="9Uq3U7OXlzmtbaHYE6mR-201" vertex="1">
          <mxGeometry y="26" width="100" height="74" as="geometry" />
        </mxCell>
        <mxCell id="9Uq3U7OXlzmtbaHYE6mR-203" value="doWebService" style="swimlane;fontStyle=0;childLayout=stackLayout;horizontal=1;startSize=26;fillColor=#ffe6cc;horizontalStack=0;resizeParent=1;resizeParentMax=0;resizeLast=0;collapsible=1;marginBottom=0;strokeColor=#d79b00;" parent="9Uq3U7OXlzmtbaHYE6mR-1" vertex="1">
          <mxGeometry x="1310" y="2823" width="100" height="100" as="geometry" />
        </mxCell>
        <mxCell id="9Uq3U7OXlzmtbaHYE6mR-204" value="getServerPath&#xa;&#xa;method&#xa;port.getWsdl" style="text;strokeColor=#d79b00;fillColor=#ffe6cc;align=left;verticalAlign=top;spacingLeft=4;spacingRight=4;overflow=hidden;rotatable=0;points=[[0,0.5],[1,0.5]];portConstraint=eastwest;" parent="9Uq3U7OXlzmtbaHYE6mR-203" vertex="1">
          <mxGeometry y="26" width="100" height="74" as="geometry" />
        </mxCell>
        <mxCell id="9Uq3U7OXlzmtbaHYE6mR-207" style="edgeStyle=orthogonalEdgeStyle;rounded=0;orthogonalLoop=1;jettySize=auto;html=1;dashed=1;startArrow=none;startFill=0;endArrow=classic;endFill=1;entryX=-0.01;entryY=0.324;entryDx=0;entryDy=0;entryPerimeter=0;" parent="9Uq3U7OXlzmtbaHYE6mR-1" source="9Uq3U7OXlzmtbaHYE6mR-206" target="9Uq3U7OXlzmtbaHYE6mR-218" edge="1">
          <mxGeometry relative="1" as="geometry">
            <mxPoint x="1530" y="2873" as="targetPoint" />
            <Array as="points">
              <mxPoint x="1420" y="2886" />
              <mxPoint x="1420" y="2873" />
            </Array>
          </mxGeometry>
        </mxCell>
        <mxCell id="9Uq3U7OXlzmtbaHYE6mR-208" value="Yes" style="edgeLabel;html=1;align=center;verticalAlign=middle;resizable=0;points=[];" parent="9Uq3U7OXlzmtbaHYE6mR-207" vertex="1" connectable="0">
          <mxGeometry x="0.1148" y="2" relative="1" as="geometry">
            <mxPoint as="offset" />
          </mxGeometry>
        </mxCell>
        <mxCell id="9Uq3U7OXlzmtbaHYE6mR-209" style="edgeStyle=orthogonalEdgeStyle;rounded=0;orthogonalLoop=1;jettySize=auto;html=1;dashed=1;startArrow=none;startFill=0;endArrow=classic;endFill=1;" parent="9Uq3U7OXlzmtbaHYE6mR-1" source="9Uq3U7OXlzmtbaHYE6mR-206" edge="1">
          <mxGeometry relative="1" as="geometry">
            <mxPoint x="1310" y="2978" as="targetPoint" />
            <Array as="points">
              <mxPoint x="872" y="2978" />
            </Array>
          </mxGeometry>
        </mxCell>
        <mxCell id="9Uq3U7OXlzmtbaHYE6mR-210" value="No" style="edgeLabel;html=1;align=center;verticalAlign=middle;resizable=0;points=[];" parent="9Uq3U7OXlzmtbaHYE6mR-209" vertex="1" connectable="0">
          <mxGeometry x="-0.2222" relative="1" as="geometry">
            <mxPoint as="offset" />
          </mxGeometry>
        </mxCell>
        <mxCell id="9Uq3U7OXlzmtbaHYE6mR-206" value="是否外网" style="rhombus;fillColor=#e1d5e7;strokeColor=#9673a6;" parent="9Uq3U7OXlzmtbaHYE6mR-1" vertex="1">
          <mxGeometry x="830" y="2861" width="90" height="50" as="geometry" />
        </mxCell>
        <mxCell id="9Uq3U7OXlzmtbaHYE6mR-211" value="doPost" style="swimlane;fontStyle=0;childLayout=stackLayout;horizontal=1;startSize=26;fillColor=#ffe6cc;horizontalStack=0;resizeParent=1;resizeParentMax=0;resizeLast=0;collapsible=1;marginBottom=0;strokeColor=#d79b00;" parent="9Uq3U7OXlzmtbaHYE6mR-1" vertex="1">
          <mxGeometry x="1310" y="2938" width="100" height="100" as="geometry" />
        </mxCell>
        <mxCell id="9Uq3U7OXlzmtbaHYE6mR-212" value="getServerPath&#xa;&#xa;content" style="text;strokeColor=#d79b00;fillColor=#ffe6cc;align=left;verticalAlign=top;spacingLeft=4;spacingRight=4;overflow=hidden;rotatable=0;points=[[0,0.5],[1,0.5]];portConstraint=eastwest;" parent="9Uq3U7OXlzmtbaHYE6mR-211" vertex="1">
          <mxGeometry y="26" width="100" height="74" as="geometry" />
        </mxCell>
        <mxCell id="9Uq3U7OXlzmtbaHYE6mR-214" style="edgeStyle=orthogonalEdgeStyle;rounded=0;orthogonalLoop=1;jettySize=auto;html=1;dashed=1;startArrow=none;startFill=0;endArrow=none;endFill=0;" parent="9Uq3U7OXlzmtbaHYE6mR-1" source="9Uq3U7OXlzmtbaHYE6mR-213" edge="1">
          <mxGeometry relative="1" as="geometry">
            <mxPoint x="1550" y="2930" as="targetPoint" />
            <Array as="points">
              <mxPoint x="1550" y="2700" />
              <mxPoint x="1550" y="2700" />
            </Array>
          </mxGeometry>
        </mxCell>
        <mxCell id="9Uq3U7OXlzmtbaHYE6mR-213" value="&lt;b&gt;HttpAndHttpsProxy&lt;/b&gt;" style="html=1;fillColor=#d5e8d4;strokeColor=#82b366;" parent="9Uq3U7OXlzmtbaHYE6mR-1" vertex="1">
          <mxGeometry x="1490" y="80" width="120" height="50" as="geometry" />
        </mxCell>
        <mxCell id="9Uq3U7OXlzmtbaHYE6mR-217" value="HttpsProxy" style="swimlane;fontStyle=0;childLayout=stackLayout;horizontal=1;startSize=26;fillColor=#ffe6cc;horizontalStack=0;resizeParent=1;resizeParentMax=0;resizeLast=0;collapsible=1;marginBottom=0;strokeColor=#d79b00;" parent="9Uq3U7OXlzmtbaHYE6mR-1" vertex="1">
          <mxGeometry x="1450" y="2823" width="100" height="100" as="geometry" />
        </mxCell>
        <mxCell id="9Uq3U7OXlzmtbaHYE6mR-218" value="getServerPath&#xa;&#xa;content&#xa;proxyServer/port" style="text;strokeColor=#d79b00;fillColor=#ffe6cc;align=left;verticalAlign=top;spacingLeft=4;spacingRight=4;overflow=hidden;rotatable=0;points=[[0,0.5],[1,0.5]];portConstraint=eastwest;" parent="9Uq3U7OXlzmtbaHYE6mR-217" vertex="1">
          <mxGeometry y="26" width="100" height="74" as="geometry" />
        </mxCell>
        <mxCell id="9Uq3U7OXlzmtbaHYE6mR-224" value="" style="endArrow=classic;dashed=1;endFill=1;endSize=12;html=1;entryX=-0.03;entryY=0.014;entryDx=0;entryDy=0;entryPerimeter=0;exitX=0.992;exitY=0.531;exitDx=0;exitDy=0;exitPerimeter=0;" parent="9Uq3U7OXlzmtbaHYE6mR-1" source="9Uq3U7OXlzmtbaHYE6mR-196" target="9Uq3U7OXlzmtbaHYE6mR-227" edge="1">
          <mxGeometry width="160" relative="1" as="geometry">
            <mxPoint x="690" y="3088" as="sourcePoint" />
            <mxPoint x="850" y="3088" as="targetPoint" />
          </mxGeometry>
        </mxCell>
        <mxCell id="9Uq3U7OXlzmtbaHYE6mR-225" value="SERVLET" style="edgeLabel;html=1;align=center;verticalAlign=middle;resizable=0;points=[];" parent="9Uq3U7OXlzmtbaHYE6mR-224" vertex="1" connectable="0">
          <mxGeometry x="-0.1375" y="-3" relative="1" as="geometry">
            <mxPoint as="offset" />
          </mxGeometry>
        </mxCell>
        <mxCell id="9Uq3U7OXlzmtbaHYE6mR-226" value="doServlet" style="swimlane;fontStyle=0;childLayout=stackLayout;horizontal=1;startSize=26;fillColor=#ffe6cc;horizontalStack=0;resizeParent=1;resizeParentMax=0;resizeLast=0;collapsible=1;marginBottom=0;strokeColor=#d79b00;" parent="9Uq3U7OXlzmtbaHYE6mR-1" vertex="1">
          <mxGeometry x="1310" y="3058" width="100" height="100" as="geometry" />
        </mxCell>
        <mxCell id="9Uq3U7OXlzmtbaHYE6mR-227" value="getServerPath&#xa;&#xa;content" style="text;strokeColor=#d79b00;fillColor=#ffe6cc;align=left;verticalAlign=top;spacingLeft=4;spacingRight=4;overflow=hidden;rotatable=0;points=[[0,0.5],[1,0.5]];portConstraint=eastwest;" parent="9Uq3U7OXlzmtbaHYE6mR-226" vertex="1">
          <mxGeometry y="26" width="100" height="74" as="geometry" />
        </mxCell>
        <mxCell id="9Uq3U7OXlzmtbaHYE6mR-228" value="" style="endArrow=classic;dashed=1;endFill=1;endSize=12;html=1;entryX=-0.03;entryY=0.014;entryDx=0;entryDy=0;entryPerimeter=0;exitX=1;exitY=0.769;exitDx=0;exitDy=0;exitPerimeter=0;" parent="9Uq3U7OXlzmtbaHYE6mR-1" source="9Uq3U7OXlzmtbaHYE6mR-196" target="9Uq3U7OXlzmtbaHYE6mR-231" edge="1">
          <mxGeometry width="160" relative="1" as="geometry">
            <mxPoint x="690" y="3208" as="sourcePoint" />
            <mxPoint x="850" y="3208" as="targetPoint" />
          </mxGeometry>
        </mxCell>
        <mxCell id="9Uq3U7OXlzmtbaHYE6mR-229" value="AL_HTTPS" style="edgeLabel;html=1;align=center;verticalAlign=middle;resizable=0;points=[];" parent="9Uq3U7OXlzmtbaHYE6mR-228" vertex="1" connectable="0">
          <mxGeometry x="-0.1375" y="-3" relative="1" as="geometry">
            <mxPoint as="offset" />
          </mxGeometry>
        </mxCell>
        <mxCell id="9Uq3U7OXlzmtbaHYE6mR-230" value="comon_interface" style="swimlane;fontStyle=0;childLayout=stackLayout;horizontal=1;startSize=26;fillColor=#ffe6cc;horizontalStack=0;resizeParent=1;resizeParentMax=0;resizeLast=0;collapsible=1;marginBottom=0;strokeColor=#d79b00;" parent="9Uq3U7OXlzmtbaHYE6mR-1" vertex="1">
          <mxGeometry x="1310" y="3178" width="100" height="100" as="geometry" />
        </mxCell>
        <mxCell id="9Uq3U7OXlzmtbaHYE6mR-231" value="getServerPath&#xa;&#xa;content" style="text;strokeColor=#d79b00;fillColor=#ffe6cc;align=left;verticalAlign=top;spacingLeft=4;spacingRight=4;overflow=hidden;rotatable=0;points=[[0,0.5],[1,0.5]];portConstraint=eastwest;" parent="9Uq3U7OXlzmtbaHYE6mR-230" vertex="1">
          <mxGeometry y="26" width="100" height="74" as="geometry" />
        </mxCell>
        <mxCell id="9Uq3U7OXlzmtbaHYE6mR-232" value="" style="endArrow=none;dashed=1;endFill=0;endSize=12;html=1;startArrow=block;startFill=0;exitX=0.992;exitY=0.982;exitDx=0;exitDy=0;exitPerimeter=0;" parent="9Uq3U7OXlzmtbaHYE6mR-1" source="9Uq3U7OXlzmtbaHYE6mR-196" edge="1">
          <mxGeometry width="160" relative="1" as="geometry">
            <mxPoint x="690.8000000000002" y="3311.53" as="sourcePoint" />
            <mxPoint x="1410" y="3313" as="targetPoint" />
          </mxGeometry>
        </mxCell>
        <mxCell id="9Uq3U7OXlzmtbaHYE6mR-233" value="中介response" style="edgeLabel;html=1;align=center;verticalAlign=middle;resizable=0;points=[];" parent="9Uq3U7OXlzmtbaHYE6mR-232" vertex="1" connectable="0">
          <mxGeometry x="-0.1868" y="1" relative="1" as="geometry">
            <mxPoint as="offset" />
          </mxGeometry>
        </mxCell>
        <mxCell id="9Uq3U7OXlzmtbaHYE6mR-234" value="" style="html=1;points=[];perimeter=orthogonalPerimeter;" parent="9Uq3U7OXlzmtbaHYE6mR-1" vertex="1">
          <mxGeometry x="530" y="3441" width="10" height="45" as="geometry" />
        </mxCell>
        <mxCell id="9Uq3U7OXlzmtbaHYE6mR-235" style="edgeStyle=orthogonalEdgeStyle;rounded=0;orthogonalLoop=1;jettySize=auto;html=1;dashed=1;endArrow=classic;endFill=1;" parent="9Uq3U7OXlzmtbaHYE6mR-1" source="9Uq3U7OXlzmtbaHYE6mR-237" edge="1">
          <mxGeometry relative="1" as="geometry">
            <mxPoint x="545" y="3451" as="targetPoint" />
          </mxGeometry>
        </mxCell>
        <mxCell id="9Uq3U7OXlzmtbaHYE6mR-236" value="No" style="edgeLabel;html=1;align=center;verticalAlign=middle;resizable=0;points=[];" parent="9Uq3U7OXlzmtbaHYE6mR-235" vertex="1" connectable="0">
          <mxGeometry x="-0.1273" relative="1" as="geometry">
            <mxPoint as="offset" />
          </mxGeometry>
        </mxCell>
        <mxCell id="9Uq3U7OXlzmtbaHYE6mR-237" value="Port&#xa;是否整体解密" style="rhombus;fillColor=#e1d5e7;strokeColor=#9673a6;" parent="9Uq3U7OXlzmtbaHYE6mR-1" vertex="1">
          <mxGeometry x="545" y="3361" width="70" height="70" as="geometry" />
        </mxCell>
        <mxCell id="9Uq3U7OXlzmtbaHYE6mR-238" value="" style="edgeStyle=orthogonalEdgeStyle;html=1;align=left;spacingLeft=2;endArrow=block;rounded=0;entryX=0.5;entryY=0;dashed=1;entryDx=0;entryDy=0;" parent="9Uq3U7OXlzmtbaHYE6mR-1" target="9Uq3U7OXlzmtbaHYE6mR-237" edge="1">
          <mxGeometry relative="1" as="geometry">
            <mxPoint x="530" y="3348" as="sourcePoint" />
            <Array as="points" />
            <mxPoint x="540" y="3441" as="targetPoint" />
          </mxGeometry>
        </mxCell>
        <mxCell id="9Uq3U7OXlzmtbaHYE6mR-239" value="Yes" style="html=1;verticalAlign=bottom;endArrow=block;entryX=0;entryY=0;dashed=1;exitX=1;exitY=0.5;exitDx=0;exitDy=0;entryDx=0;entryDy=0;" parent="9Uq3U7OXlzmtbaHYE6mR-1" source="9Uq3U7OXlzmtbaHYE6mR-237" target="9Uq3U7OXlzmtbaHYE6mR-241" edge="1">
          <mxGeometry relative="1" as="geometry">
            <mxPoint x="648" y="3397" as="sourcePoint" />
            <mxPoint x="908" y="3397" as="targetPoint" />
          </mxGeometry>
        </mxCell>
        <mxCell id="9Uq3U7OXlzmtbaHYE6mR-240" value="return" style="html=1;verticalAlign=bottom;endArrow=open;dashed=1;endSize=8;exitX=-0.029;exitY=1.077;exitDx=0;exitDy=0;exitPerimeter=0;" parent="9Uq3U7OXlzmtbaHYE6mR-1" source="9Uq3U7OXlzmtbaHYE6mR-244" edge="1">
          <mxGeometry x="-0.1165" relative="1" as="geometry">
            <mxPoint x="534" y="3504" as="targetPoint" />
            <mxPoint x="904" y="3504" as="sourcePoint" />
            <Array as="points">
              <mxPoint x="704" y="3504" />
            </Array>
            <mxPoint as="offset" />
          </mxGeometry>
        </mxCell>
        <mxCell id="9Uq3U7OXlzmtbaHYE6mR-241" value="encryData" style="swimlane;fontStyle=0;childLayout=stackLayout;horizontal=1;startSize=26;fillColor=#ffe6cc;horizontalStack=0;resizeParent=1;resizeParentMax=0;resizeLast=0;collapsible=1;marginBottom=0;strokeColor=#d79b00;" parent="9Uq3U7OXlzmtbaHYE6mR-1" vertex="1">
          <mxGeometry x="799" y="3398" width="120" height="104" as="geometry" />
        </mxCell>
        <mxCell id="9Uq3U7OXlzmtbaHYE6mR-242" value="Port.加密标识" style="text;strokeColor=#d79b00;fillColor=#ffe6cc;align=left;verticalAlign=top;spacingLeft=4;spacingRight=4;overflow=hidden;rotatable=0;points=[[0,0.5],[1,0.5]];portConstraint=eastwest;" parent="9Uq3U7OXlzmtbaHYE6mR-241" vertex="1">
          <mxGeometry y="26" width="120" height="26" as="geometry" />
        </mxCell>
        <mxCell id="9Uq3U7OXlzmtbaHYE6mR-243" value=" bodyStr" style="text;strokeColor=#d79b00;fillColor=#ffe6cc;align=left;verticalAlign=top;spacingLeft=4;spacingRight=4;overflow=hidden;rotatable=0;points=[[0,0.5],[1,0.5]];portConstraint=eastwest;" parent="9Uq3U7OXlzmtbaHYE6mR-241" vertex="1">
          <mxGeometry y="52" width="120" height="26" as="geometry" />
        </mxCell>
        <mxCell id="9Uq3U7OXlzmtbaHYE6mR-244" value="出参Type" style="text;strokeColor=#d79b00;fillColor=#ffe6cc;align=left;verticalAlign=top;spacingLeft=4;spacingRight=4;overflow=hidden;rotatable=0;points=[[0,0.5],[1,0.5]];portConstraint=eastwest;" parent="9Uq3U7OXlzmtbaHYE6mR-241" vertex="1">
          <mxGeometry y="78" width="120" height="26" as="geometry" />
        </mxCell>
        <mxCell id="9Uq3U7OXlzmtbaHYE6mR-256" value="" style="html=1;points=[];perimeter=orthogonalPerimeter;" parent="9Uq3U7OXlzmtbaHYE6mR-1" vertex="1">
          <mxGeometry x="530" y="3661" width="10" height="45" as="geometry" />
        </mxCell>
        <mxCell id="9Uq3U7OXlzmtbaHYE6mR-257" style="edgeStyle=orthogonalEdgeStyle;rounded=0;orthogonalLoop=1;jettySize=auto;html=1;dashed=1;endArrow=classic;endFill=1;" parent="9Uq3U7OXlzmtbaHYE6mR-1" source="9Uq3U7OXlzmtbaHYE6mR-259" edge="1">
          <mxGeometry relative="1" as="geometry">
            <mxPoint x="545" y="3671" as="targetPoint" />
          </mxGeometry>
        </mxCell>
        <mxCell id="9Uq3U7OXlzmtbaHYE6mR-258" value="No" style="edgeLabel;html=1;align=center;verticalAlign=middle;resizable=0;points=[];" parent="9Uq3U7OXlzmtbaHYE6mR-257" vertex="1" connectable="0">
          <mxGeometry x="-0.1273" relative="1" as="geometry">
            <mxPoint as="offset" />
          </mxGeometry>
        </mxCell>
        <mxCell id="9Uq3U7OXlzmtbaHYE6mR-259" value="&#xa;Port&#xa;接口出参type是否XML&#xa;" style="rhombus;fillColor=#e1d5e7;strokeColor=#9673a6;" parent="9Uq3U7OXlzmtbaHYE6mR-1" vertex="1">
          <mxGeometry x="545" y="3581" width="139" height="70" as="geometry" />
        </mxCell>
        <mxCell id="9Uq3U7OXlzmtbaHYE6mR-260" value="" style="edgeStyle=orthogonalEdgeStyle;html=1;align=left;spacingLeft=2;endArrow=block;rounded=0;entryX=0.5;entryY=0;dashed=1;entryDx=0;entryDy=0;" parent="9Uq3U7OXlzmtbaHYE6mR-1" target="9Uq3U7OXlzmtbaHYE6mR-259" edge="1">
          <mxGeometry relative="1" as="geometry">
            <mxPoint x="530" y="3568" as="sourcePoint" />
            <Array as="points" />
            <mxPoint x="540" y="3661" as="targetPoint" />
          </mxGeometry>
        </mxCell>
        <mxCell id="9Uq3U7OXlzmtbaHYE6mR-261" value="Yes" style="html=1;verticalAlign=bottom;endArrow=block;entryX=0;entryY=0;dashed=1;exitX=1;exitY=0.5;exitDx=0;exitDy=0;entryDx=0;entryDy=0;" parent="9Uq3U7OXlzmtbaHYE6mR-1" source="9Uq3U7OXlzmtbaHYE6mR-259" target="9Uq3U7OXlzmtbaHYE6mR-263" edge="1">
          <mxGeometry relative="1" as="geometry">
            <mxPoint x="638" y="3617" as="sourcePoint" />
            <mxPoint x="898" y="3617" as="targetPoint" />
          </mxGeometry>
        </mxCell>
        <mxCell id="9Uq3U7OXlzmtbaHYE6mR-262" value="return" style="html=1;verticalAlign=bottom;endArrow=open;dashed=1;endSize=8;exitX=-0.029;exitY=1.077;exitDx=0;exitDy=0;exitPerimeter=0;" parent="9Uq3U7OXlzmtbaHYE6mR-1" edge="1">
          <mxGeometry x="-0.0718" y="-8" relative="1" as="geometry">
            <mxPoint x="540" y="3698" as="targetPoint" />
            <mxPoint x="950.52" y="3698.002" as="sourcePoint" />
            <Array as="points">
              <mxPoint x="694" y="3698" />
            </Array>
            <mxPoint as="offset" />
          </mxGeometry>
        </mxCell>
        <mxCell id="9Uq3U7OXlzmtbaHYE6mR-263" value="xmlToJson" style="swimlane;fontStyle=0;childLayout=stackLayout;horizontal=1;startSize=26;fillColor=#ffe6cc;horizontalStack=0;resizeParent=1;resizeParentMax=0;resizeLast=0;collapsible=1;marginBottom=0;strokeColor=#d79b00;" parent="9Uq3U7OXlzmtbaHYE6mR-1" vertex="1">
          <mxGeometry x="956" y="3618" width="120" height="80" as="geometry" />
        </mxCell>
        <mxCell id="9Uq3U7OXlzmtbaHYE6mR-264" value="Content：String" style="text;strokeColor=#d79b00;fillColor=#ffe6cc;align=left;verticalAlign=top;spacingLeft=4;spacingRight=4;overflow=hidden;rotatable=0;points=[[0,0.5],[1,0.5]];portConstraint=eastwest;" parent="9Uq3U7OXlzmtbaHYE6mR-263" vertex="1">
          <mxGeometry y="26" width="120" height="54" as="geometry" />
        </mxCell>
        <mxCell id="9Uq3U7OXlzmtbaHYE6mR-265" value="" style="endArrow=block;endSize=16;endFill=0;html=1;dashed=1;" parent="9Uq3U7OXlzmtbaHYE6mR-1" edge="1">
          <mxGeometry width="160" relative="1" as="geometry">
            <mxPoint x="790" y="105" as="sourcePoint" />
            <mxPoint x="860" y="104.58000000000001" as="targetPoint" />
          </mxGeometry>
        </mxCell>
        <mxCell id="9Uq3U7OXlzmtbaHYE6mR-267" value="" style="endArrow=classic;html=1;dashed=1;" parent="9Uq3U7OXlzmtbaHYE6mR-1" edge="1">
          <mxGeometry width="50" height="50" relative="1" as="geometry">
            <mxPoint x="920" y="2489" as="sourcePoint" />
            <mxPoint x="965" y="2488.58" as="targetPoint" />
          </mxGeometry>
        </mxCell>
        <mxCell id="9Uq3U7OXlzmtbaHYE6mR-268" style="edgeStyle=orthogonalEdgeStyle;rounded=0;orthogonalLoop=1;jettySize=auto;html=1;exitX=0;exitY=0.5;exitDx=0;exitDy=0;startArrow=none;startFill=0;endArrow=classic;endFill=1;" parent="9Uq3U7OXlzmtbaHYE6mR-1" source="9Uq3U7OXlzmtbaHYE6mR-218" target="9Uq3U7OXlzmtbaHYE6mR-196" edge="1">
          <mxGeometry relative="1" as="geometry">
            <Array as="points">
              <mxPoint x="1450" y="3050" />
            </Array>
          </mxGeometry>
        </mxCell>
        <mxCell id="9Uq3U7OXlzmtbaHYE6mR-269" value="外网response" style="edgeLabel;html=1;align=center;verticalAlign=middle;resizable=0;points=[];" parent="9Uq3U7OXlzmtbaHYE6mR-268" vertex="1" connectable="0">
          <mxGeometry x="0.8094" y="2" relative="1" as="geometry">
            <mxPoint as="offset" />
          </mxGeometry>
        </mxCell>
        <mxCell id="9Uq3U7OXlzmtbaHYE6mR-288" value="cbsToInsurerData" style="swimlane;fontStyle=0;childLayout=stackLayout;horizontal=1;startSize=26;fillColor=#ffe6cc;horizontalStack=0;resizeParent=1;resizeParentMax=0;resizeLast=0;collapsible=1;marginBottom=0;strokeColor=#d79b00;" parent="9Uq3U7OXlzmtbaHYE6mR-1" vertex="1">
          <mxGeometry x="638" y="3938" width="95" height="110" as="geometry">
            <mxRectangle x="640" y="1290" width="130" height="26" as="alternateBounds" />
          </mxGeometry>
        </mxCell>
        <mxCell id="9Uq3U7OXlzmtbaHYE6mR-289" value="insurerPort.id" style="text;strokeColor=#d79b00;fillColor=#ffe6cc;align=left;verticalAlign=top;spacingLeft=4;spacingRight=4;overflow=hidden;rotatable=0;points=[[0,0.5],[1,0.5]];portConstraint=eastwest;" parent="9Uq3U7OXlzmtbaHYE6mR-288" vertex="1">
          <mxGeometry y="26" width="95" height="24" as="geometry" />
        </mxCell>
        <mxCell id="9Uq3U7OXlzmtbaHYE6mR-290" value="prot.Id" style="text;strokeColor=#d79b00;fillColor=#ffe6cc;align=left;verticalAlign=top;spacingLeft=4;spacingRight=4;overflow=hidden;rotatable=0;points=[[0,0.5],[1,0.5]];portConstraint=eastwest;" parent="9Uq3U7OXlzmtbaHYE6mR-288" vertex="1">
          <mxGeometry y="50" width="95" height="26" as="geometry" />
        </mxCell>
        <mxCell id="9Uq3U7OXlzmtbaHYE6mR-291" value="jsonBody&#xa;出参type&#xa;" style="text;strokeColor=#d79b00;fillColor=#ffe6cc;align=left;verticalAlign=top;spacingLeft=4;spacingRight=4;overflow=hidden;rotatable=0;points=[[0,0.5],[1,0.5]];portConstraint=eastwest;" parent="9Uq3U7OXlzmtbaHYE6mR-288" vertex="1">
          <mxGeometry y="76" width="95" height="34" as="geometry" />
        </mxCell>
        <mxCell id="9Uq3U7OXlzmtbaHYE6mR-292" style="edgeStyle=orthogonalEdgeStyle;rounded=0;orthogonalLoop=1;jettySize=auto;html=1;dashed=1;endArrow=none;endFill=0;startArrow=classic;startFill=1;" parent="9Uq3U7OXlzmtbaHYE6mR-1" source="9Uq3U7OXlzmtbaHYE6mR-289" edge="1">
          <mxGeometry relative="1" as="geometry">
            <mxPoint x="530" y="3786" as="targetPoint" />
          </mxGeometry>
        </mxCell>
        <mxCell id="9Uq3U7OXlzmtbaHYE6mR-293" value="中介核心转化为保司" style="text;html=1;align=center;verticalAlign=middle;resizable=0;points=[];autosize=1;" parent="9Uq3U7OXlzmtbaHYE6mR-1" vertex="1">
          <mxGeometry x="521" y="3948" width="120" height="20" as="geometry" />
        </mxCell>
        <mxCell id="9Uq3U7OXlzmtbaHYE6mR-294" style="edgeStyle=orthogonalEdgeStyle;rounded=0;orthogonalLoop=1;jettySize=auto;html=1;dashed=1;startArrow=none;startFill=0;endArrow=classic;endFill=1;entryX=1.2;entryY=0.719;entryDx=0;entryDy=0;entryPerimeter=0;" parent="9Uq3U7OXlzmtbaHYE6mR-1" source="9Uq3U7OXlzmtbaHYE6mR-291" edge="1">
          <mxGeometry relative="1" as="geometry">
            <mxPoint x="530.0000000000002" y="4026.5" as="targetPoint" />
            <Array as="points">
              <mxPoint x="584" y="4027" />
            </Array>
          </mxGeometry>
        </mxCell>
        <mxCell id="9Uq3U7OXlzmtbaHYE6mR-295" value="return" style="edgeLabel;html=1;align=center;verticalAlign=middle;resizable=0;points=[];" parent="9Uq3U7OXlzmtbaHYE6mR-294" vertex="1" connectable="0">
          <mxGeometry x="0.2814" y="1" relative="1" as="geometry">
            <mxPoint x="2.17" y="-9.5" as="offset" />
          </mxGeometry>
        </mxCell>
        <mxCell id="9Uq3U7OXlzmtbaHYE6mR-296" value="cbsEncry" style="swimlane;fontStyle=0;childLayout=stackLayout;horizontal=1;startSize=26;fillColor=#ffe6cc;horizontalStack=0;resizeParent=1;resizeParentMax=0;resizeLast=0;collapsible=1;marginBottom=0;strokeColor=#d79b00;" parent="9Uq3U7OXlzmtbaHYE6mR-1" vertex="1">
          <mxGeometry x="640" y="3778" width="95" height="102" as="geometry">
            <mxRectangle x="640" y="1290" width="130" height="26" as="alternateBounds" />
          </mxGeometry>
        </mxCell>
        <mxCell id="9Uq3U7OXlzmtbaHYE6mR-297" value="centerMap" style="text;strokeColor=#d79b00;fillColor=#ffe6cc;align=left;verticalAlign=top;spacingLeft=4;spacingRight=4;overflow=hidden;rotatable=0;points=[[0,0.5],[1,0.5]];portConstraint=eastwest;" parent="9Uq3U7OXlzmtbaHYE6mR-296" vertex="1">
          <mxGeometry y="26" width="95" height="24" as="geometry" />
        </mxCell>
        <mxCell id="9Uq3U7OXlzmtbaHYE6mR-298" value="prot.Id" style="text;strokeColor=#d79b00;fillColor=#ffe6cc;align=left;verticalAlign=top;spacingLeft=4;spacingRight=4;overflow=hidden;rotatable=0;points=[[0,0.5],[1,0.5]];portConstraint=eastwest;" parent="9Uq3U7OXlzmtbaHYE6mR-296" vertex="1">
          <mxGeometry y="50" width="95" height="26" as="geometry" />
        </mxCell>
        <mxCell id="9Uq3U7OXlzmtbaHYE6mR-299" value="出参Type" style="text;strokeColor=#d79b00;fillColor=#ffe6cc;align=left;verticalAlign=top;spacingLeft=4;spacingRight=4;overflow=hidden;rotatable=0;points=[[0,0.5],[1,0.5]];portConstraint=eastwest;" parent="9Uq3U7OXlzmtbaHYE6mR-296" vertex="1">
          <mxGeometry y="76" width="95" height="26" as="geometry" />
        </mxCell>
        <mxCell id="9Uq3U7OXlzmtbaHYE6mR-300" style="edgeStyle=orthogonalEdgeStyle;rounded=0;orthogonalLoop=1;jettySize=auto;html=1;dashed=1;endArrow=none;endFill=0;startArrow=classic;startFill=1;" parent="9Uq3U7OXlzmtbaHYE6mR-1" source="9Uq3U7OXlzmtbaHYE6mR-297" edge="1">
          <mxGeometry relative="1" as="geometry">
            <mxPoint x="530" y="3816" as="targetPoint" />
          </mxGeometry>
        </mxCell>
        <mxCell id="9Uq3U7OXlzmtbaHYE6mR-301" value="处理解密" style="text;html=1;align=center;verticalAlign=middle;resizable=0;points=[];autosize=1;" parent="9Uq3U7OXlzmtbaHYE6mR-1" vertex="1">
          <mxGeometry x="541" y="3788" width="60" height="20" as="geometry" />
        </mxCell>
        <mxCell id="9Uq3U7OXlzmtbaHYE6mR-302" style="edgeStyle=orthogonalEdgeStyle;rounded=0;orthogonalLoop=1;jettySize=auto;html=1;dashed=1;startArrow=none;startFill=0;endArrow=classic;endFill=1;entryX=1.2;entryY=0.719;entryDx=0;entryDy=0;entryPerimeter=0;" parent="9Uq3U7OXlzmtbaHYE6mR-1" source="9Uq3U7OXlzmtbaHYE6mR-299" edge="1">
          <mxGeometry relative="1" as="geometry">
            <mxPoint x="532.0000000000002" y="3866.5" as="targetPoint" />
          </mxGeometry>
        </mxCell>
        <mxCell id="9Uq3U7OXlzmtbaHYE6mR-303" value="return" style="edgeLabel;html=1;align=center;verticalAlign=middle;resizable=0;points=[];" parent="9Uq3U7OXlzmtbaHYE6mR-302" vertex="1" connectable="0">
          <mxGeometry x="0.2814" y="1" relative="1" as="geometry">
            <mxPoint as="offset" />
          </mxGeometry>
        </mxCell>
        <mxCell id="9Uq3U7OXlzmtbaHYE6mR-304" value="" style="html=1;points=[];perimeter=orthogonalPerimeter;" parent="9Uq3U7OXlzmtbaHYE6mR-1" vertex="1">
          <mxGeometry x="529" y="4171" width="10" height="45" as="geometry" />
        </mxCell>
        <mxCell id="9Uq3U7OXlzmtbaHYE6mR-305" style="edgeStyle=orthogonalEdgeStyle;rounded=0;orthogonalLoop=1;jettySize=auto;html=1;dashed=1;endArrow=classic;endFill=1;" parent="9Uq3U7OXlzmtbaHYE6mR-1" source="9Uq3U7OXlzmtbaHYE6mR-307" edge="1">
          <mxGeometry relative="1" as="geometry">
            <mxPoint x="544" y="4181" as="targetPoint" />
          </mxGeometry>
        </mxCell>
        <mxCell id="9Uq3U7OXlzmtbaHYE6mR-306" value="No" style="edgeLabel;html=1;align=center;verticalAlign=middle;resizable=0;points=[];" parent="9Uq3U7OXlzmtbaHYE6mR-305" vertex="1" connectable="0">
          <mxGeometry x="-0.1273" relative="1" as="geometry">
            <mxPoint as="offset" />
          </mxGeometry>
        </mxCell>
        <mxCell id="9Uq3U7OXlzmtbaHYE6mR-307" value="insurerPort&#xa;接口出参type是否XML" style="rhombus;fillColor=#e1d5e7;strokeColor=#9673a6;" parent="9Uq3U7OXlzmtbaHYE6mR-1" vertex="1">
          <mxGeometry x="544" y="4091" width="139" height="70" as="geometry" />
        </mxCell>
        <mxCell id="9Uq3U7OXlzmtbaHYE6mR-308" value="" style="edgeStyle=orthogonalEdgeStyle;html=1;align=left;spacingLeft=2;endArrow=block;rounded=0;entryX=0.5;entryY=0;dashed=1;entryDx=0;entryDy=0;" parent="9Uq3U7OXlzmtbaHYE6mR-1" target="9Uq3U7OXlzmtbaHYE6mR-307" edge="1">
          <mxGeometry relative="1" as="geometry">
            <mxPoint x="529" y="4078.0000000000005" as="sourcePoint" />
            <Array as="points" />
            <mxPoint x="539" y="4171" as="targetPoint" />
          </mxGeometry>
        </mxCell>
        <mxCell id="9Uq3U7OXlzmtbaHYE6mR-309" value="Yes" style="html=1;verticalAlign=bottom;endArrow=block;entryX=0;entryY=0;dashed=1;exitX=1;exitY=0.5;exitDx=0;exitDy=0;entryDx=0;entryDy=0;" parent="9Uq3U7OXlzmtbaHYE6mR-1" source="9Uq3U7OXlzmtbaHYE6mR-307" target="9Uq3U7OXlzmtbaHYE6mR-311" edge="1">
          <mxGeometry relative="1" as="geometry">
            <mxPoint x="637" y="4127" as="sourcePoint" />
            <mxPoint x="897" y="4127" as="targetPoint" />
          </mxGeometry>
        </mxCell>
        <mxCell id="9Uq3U7OXlzmtbaHYE6mR-310" value="return" style="html=1;verticalAlign=bottom;endArrow=open;dashed=1;endSize=8;exitX=-0.029;exitY=1.077;exitDx=0;exitDy=0;exitPerimeter=0;" parent="9Uq3U7OXlzmtbaHYE6mR-1" edge="1">
          <mxGeometry x="-0.028" relative="1" as="geometry">
            <mxPoint x="539" y="4208" as="targetPoint" />
            <mxPoint x="949.52" y="4208.002" as="sourcePoint" />
            <Array as="points">
              <mxPoint x="693" y="4208" />
            </Array>
            <mxPoint as="offset" />
          </mxGeometry>
        </mxCell>
        <mxCell id="9Uq3U7OXlzmtbaHYE6mR-311" value="jsonToXml" style="swimlane;fontStyle=0;childLayout=stackLayout;horizontal=1;startSize=26;fillColor=#ffe6cc;horizontalStack=0;resizeParent=1;resizeParentMax=0;resizeLast=0;collapsible=1;marginBottom=0;strokeColor=#d79b00;" parent="9Uq3U7OXlzmtbaHYE6mR-1" vertex="1">
          <mxGeometry x="955" y="4128" width="120" height="80" as="geometry" />
        </mxCell>
        <mxCell id="9Uq3U7OXlzmtbaHYE6mR-312" value="Content：String" style="text;strokeColor=#d79b00;fillColor=#ffe6cc;align=left;verticalAlign=top;spacingLeft=4;spacingRight=4;overflow=hidden;rotatable=0;points=[[0,0.5],[1,0.5]];portConstraint=eastwest;" parent="9Uq3U7OXlzmtbaHYE6mR-311" vertex="1">
          <mxGeometry y="26" width="120" height="54" as="geometry" />
        </mxCell>
        <mxCell id="9Uq3U7OXlzmtbaHYE6mR-313" value="" style="html=1;points=[];perimeter=orthogonalPerimeter;" parent="9Uq3U7OXlzmtbaHYE6mR-1" vertex="1">
          <mxGeometry x="531" y="4341" width="10" height="45" as="geometry" />
        </mxCell>
        <mxCell id="9Uq3U7OXlzmtbaHYE6mR-314" style="edgeStyle=orthogonalEdgeStyle;rounded=0;orthogonalLoop=1;jettySize=auto;html=1;dashed=1;endArrow=classic;endFill=1;" parent="9Uq3U7OXlzmtbaHYE6mR-1" source="9Uq3U7OXlzmtbaHYE6mR-316" edge="1">
          <mxGeometry relative="1" as="geometry">
            <mxPoint x="546" y="4351" as="targetPoint" />
          </mxGeometry>
        </mxCell>
        <mxCell id="9Uq3U7OXlzmtbaHYE6mR-315" value="No" style="edgeLabel;html=1;align=center;verticalAlign=middle;resizable=0;points=[];" parent="9Uq3U7OXlzmtbaHYE6mR-314" vertex="1" connectable="0">
          <mxGeometry x="-0.1273" relative="1" as="geometry">
            <mxPoint as="offset" />
          </mxGeometry>
        </mxCell>
        <mxCell id="9Uq3U7OXlzmtbaHYE6mR-316" value="InsurerPort&#xa;是否整体加密" style="rhombus;fillColor=#e1d5e7;strokeColor=#9673a6;" parent="9Uq3U7OXlzmtbaHYE6mR-1" vertex="1">
          <mxGeometry x="546" y="4261" width="70" height="70" as="geometry" />
        </mxCell>
        <mxCell id="9Uq3U7OXlzmtbaHYE6mR-317" value="" style="edgeStyle=orthogonalEdgeStyle;html=1;align=left;spacingLeft=2;endArrow=block;rounded=0;entryX=0.5;entryY=0;dashed=1;entryDx=0;entryDy=0;" parent="9Uq3U7OXlzmtbaHYE6mR-1" target="9Uq3U7OXlzmtbaHYE6mR-316" edge="1">
          <mxGeometry relative="1" as="geometry">
            <mxPoint x="531" y="4248" as="sourcePoint" />
            <Array as="points" />
            <mxPoint x="541" y="4341" as="targetPoint" />
          </mxGeometry>
        </mxCell>
        <mxCell id="9Uq3U7OXlzmtbaHYE6mR-318" value="Yes" style="html=1;verticalAlign=bottom;endArrow=block;entryX=0;entryY=0;dashed=1;exitX=1;exitY=0.5;exitDx=0;exitDy=0;entryDx=0;entryDy=0;" parent="9Uq3U7OXlzmtbaHYE6mR-1" source="9Uq3U7OXlzmtbaHYE6mR-316" target="9Uq3U7OXlzmtbaHYE6mR-320" edge="1">
          <mxGeometry relative="1" as="geometry">
            <mxPoint x="649" y="4297" as="sourcePoint" />
            <mxPoint x="909" y="4297" as="targetPoint" />
          </mxGeometry>
        </mxCell>
        <mxCell id="9Uq3U7OXlzmtbaHYE6mR-319" value="return" style="html=1;verticalAlign=bottom;endArrow=open;dashed=1;endSize=8;exitX=-0.029;exitY=1.077;exitDx=0;exitDy=0;exitPerimeter=0;" parent="9Uq3U7OXlzmtbaHYE6mR-1" source="9Uq3U7OXlzmtbaHYE6mR-323" edge="1">
          <mxGeometry x="-0.1854" y="-4" relative="1" as="geometry">
            <mxPoint x="534.9999999999998" y="4404" as="targetPoint" />
            <mxPoint x="905" y="4404" as="sourcePoint" />
            <Array as="points">
              <mxPoint x="705" y="4404" />
            </Array>
            <mxPoint as="offset" />
          </mxGeometry>
        </mxCell>
        <mxCell id="9Uq3U7OXlzmtbaHYE6mR-320" value="encryData" style="swimlane;fontStyle=0;childLayout=stackLayout;horizontal=1;startSize=26;fillColor=#ffe6cc;horizontalStack=0;resizeParent=1;resizeParentMax=0;resizeLast=0;collapsible=1;marginBottom=0;strokeColor=#d79b00;" parent="9Uq3U7OXlzmtbaHYE6mR-1" vertex="1">
          <mxGeometry x="800" y="4298" width="120" height="104" as="geometry" />
        </mxCell>
        <mxCell id="9Uq3U7OXlzmtbaHYE6mR-321" value="Port.加密标识" style="text;strokeColor=#d79b00;fillColor=#ffe6cc;align=left;verticalAlign=top;spacingLeft=4;spacingRight=4;overflow=hidden;rotatable=0;points=[[0,0.5],[1,0.5]];portConstraint=eastwest;" parent="9Uq3U7OXlzmtbaHYE6mR-320" vertex="1">
          <mxGeometry y="26" width="120" height="26" as="geometry" />
        </mxCell>
        <mxCell id="9Uq3U7OXlzmtbaHYE6mR-322" value=" bodyStr" style="text;strokeColor=#d79b00;fillColor=#ffe6cc;align=left;verticalAlign=top;spacingLeft=4;spacingRight=4;overflow=hidden;rotatable=0;points=[[0,0.5],[1,0.5]];portConstraint=eastwest;" parent="9Uq3U7OXlzmtbaHYE6mR-320" vertex="1">
          <mxGeometry y="52" width="120" height="26" as="geometry" />
        </mxCell>
        <mxCell id="9Uq3U7OXlzmtbaHYE6mR-323" value="出参Type" style="text;strokeColor=#d79b00;fillColor=#ffe6cc;align=left;verticalAlign=top;spacingLeft=4;spacingRight=4;overflow=hidden;rotatable=0;points=[[0,0.5],[1,0.5]];portConstraint=eastwest;" parent="9Uq3U7OXlzmtbaHYE6mR-320" vertex="1">
          <mxGeometry y="78" width="120" height="26" as="geometry" />
        </mxCell>
        <mxCell id="9Uq3U7OXlzmtbaHYE6mR-324" value="" style="endArrow=none;html=1;startArrow=classic;startFill=1;endFill=0;" parent="9Uq3U7OXlzmtbaHYE6mR-1" edge="1">
          <mxGeometry width="50" height="50" relative="1" as="geometry">
            <mxPoint x="125" y="4420" as="sourcePoint" />
            <mxPoint x="525" y="4420" as="targetPoint" />
          </mxGeometry>
        </mxCell>
        <mxCell id="9Uq3U7OXlzmtbaHYE6mR-325" value="return result" style="edgeLabel;html=1;align=center;verticalAlign=middle;resizable=0;points=[];" parent="9Uq3U7OXlzmtbaHYE6mR-324" vertex="1" connectable="0">
          <mxGeometry x="-0.1081" y="-2" relative="1" as="geometry">
            <mxPoint y="1" as="offset" />
          </mxGeometry>
        </mxCell>
        <mxCell id="9Uq3U7OXlzmtbaHYE6mR-342" value="selectPConfigListByPortIdAndType" style="html=1;verticalAlign=bottom;endArrow=block;entryX=0;entryY=0;dashed=1;" parent="9Uq3U7OXlzmtbaHYE6mR-1" target="9Uq3U7OXlzmtbaHYE6mR-341" edge="1">
          <mxGeometry x="-0.0588" y="10" relative="1" as="geometry">
            <mxPoint x="740" y="1300" as="sourcePoint" />
            <mxPoint as="offset" />
          </mxGeometry>
        </mxCell>
        <mxCell id="9Uq3U7OXlzmtbaHYE6mR-343" value="portConfigList" style="html=1;verticalAlign=bottom;endArrow=open;dashed=1;endSize=8;exitX=0;exitY=0.95;entryX=1.021;entryY=0.208;entryDx=0;entryDy=0;entryPerimeter=0;" parent="9Uq3U7OXlzmtbaHYE6mR-1" source="9Uq3U7OXlzmtbaHYE6mR-341" target="9Uq3U7OXlzmtbaHYE6mR-108" edge="1">
          <mxGeometry relative="1" as="geometry">
            <mxPoint x="750" y="1338" as="targetPoint" />
            <Array as="points">
              <mxPoint x="880" y="1321" />
              <mxPoint x="850" y="1321" />
              <mxPoint x="780" y="1320" />
            </Array>
          </mxGeometry>
        </mxCell>
        <mxCell id="9Uq3U7OXlzmtbaHYE6mR-341" value="" style="html=1;points=[];perimeter=orthogonalPerimeter;fillColor=#fff2cc;strokeColor=#d6b656;" parent="9Uq3U7OXlzmtbaHYE6mR-1" vertex="1">
          <mxGeometry x="910" y="1300" width="10" height="20" as="geometry" />
        </mxCell>
        <mxCell id="9Uq3U7OXlzmtbaHYE6mR-344" style="edgeStyle=orthogonalEdgeStyle;rounded=0;orthogonalLoop=1;jettySize=auto;html=1;dashed=1;endArrow=none;endFill=0;" parent="9Uq3U7OXlzmtbaHYE6mR-1" source="9Uq3U7OXlzmtbaHYE6mR-70" target="9Uq3U7OXlzmtbaHYE6mR-341" edge="1">
          <mxGeometry relative="1" as="geometry">
            <mxPoint x="915" y="4230" as="targetPoint" />
            <mxPoint x="915" y="130" as="sourcePoint" />
            <Array as="points" />
          </mxGeometry>
        </mxCell>
        <mxCell id="9Uq3U7OXlzmtbaHYE6mR-362" value="selectIConfigListByIpIdAndType" style="html=1;verticalAlign=bottom;endArrow=block;entryX=0;entryY=0;" parent="9Uq3U7OXlzmtbaHYE6mR-1" target="9Uq3U7OXlzmtbaHYE6mR-361" edge="1">
          <mxGeometry relative="1" as="geometry">
            <mxPoint x="740" y="1365" as="sourcePoint" />
          </mxGeometry>
        </mxCell>
        <mxCell id="9Uq3U7OXlzmtbaHYE6mR-363" value="insurerConfigList" style="html=1;verticalAlign=bottom;endArrow=open;dashed=1;endSize=8;exitX=0;exitY=0.95;" parent="9Uq3U7OXlzmtbaHYE6mR-1" source="9Uq3U7OXlzmtbaHYE6mR-361" edge="1">
          <mxGeometry relative="1" as="geometry">
            <mxPoint x="739" y="1394" as="targetPoint" />
          </mxGeometry>
        </mxCell>
        <mxCell id="9Uq3U7OXlzmtbaHYE6mR-365" value="selectIPConfigListByIpIdAndType" style="html=1;verticalAlign=bottom;endArrow=block;entryX=0;entryY=0;" parent="9Uq3U7OXlzmtbaHYE6mR-1" target="9Uq3U7OXlzmtbaHYE6mR-364" edge="1">
          <mxGeometry relative="1" as="geometry">
            <mxPoint x="735" y="1427" as="sourcePoint" />
          </mxGeometry>
        </mxCell>
        <mxCell id="9Uq3U7OXlzmtbaHYE6mR-366" value="insurerPortConfigList" style="html=1;verticalAlign=bottom;endArrow=open;dashed=1;endSize=8;exitX=0;exitY=0.95;entryX=1.032;entryY=0.878;entryDx=0;entryDy=0;entryPerimeter=0;" parent="9Uq3U7OXlzmtbaHYE6mR-1" source="9Uq3U7OXlzmtbaHYE6mR-364" edge="1">
          <mxGeometry relative="1" as="geometry">
            <mxPoint x="738.04" y="1455.5320000000002" as="targetPoint" />
          </mxGeometry>
        </mxCell>
        <mxCell id="9Uq3U7OXlzmtbaHYE6mR-377" style="edgeStyle=orthogonalEdgeStyle;rounded=0;orthogonalLoop=1;jettySize=auto;html=1;dashed=1;startArrow=none;startFill=0;endArrow=classic;endFill=1;" parent="9Uq3U7OXlzmtbaHYE6mR-1" source="9Uq3U7OXlzmtbaHYE6mR-371" edge="1">
          <mxGeometry relative="1" as="geometry">
            <mxPoint x="910" y="1620" as="targetPoint" />
            <Array as="points">
              <mxPoint x="793" y="1620" />
            </Array>
          </mxGeometry>
        </mxCell>
        <mxCell id="9Uq3U7OXlzmtbaHYE6mR-378" value="No" style="edgeLabel;html=1;align=center;verticalAlign=middle;resizable=0;points=[];" parent="9Uq3U7OXlzmtbaHYE6mR-377" vertex="1" connectable="0">
          <mxGeometry x="-0.7547" y="1" relative="1" as="geometry">
            <mxPoint x="-1" y="37" as="offset" />
          </mxGeometry>
        </mxCell>
        <mxCell id="9Uq3U7OXlzmtbaHYE6mR-371" value="methodType ==Decode" style="rhombus;fillColor=#e1d5e7;strokeColor=#9673a6;" parent="9Uq3U7OXlzmtbaHYE6mR-1" vertex="1">
          <mxGeometry x="735" y="1490" width="115" height="60" as="geometry" />
        </mxCell>
        <mxCell id="9Uq3U7OXlzmtbaHYE6mR-375" value="Yes" style="html=1;verticalAlign=bottom;endArrow=block;entryX=0;entryY=0;dashed=1;" parent="9Uq3U7OXlzmtbaHYE6mR-1" target="9Uq3U7OXlzmtbaHYE6mR-374" edge="1">
          <mxGeometry relative="1" as="geometry">
            <mxPoint x="840" y="1520" as="sourcePoint" />
          </mxGeometry>
        </mxCell>
        <mxCell id="9Uq3U7OXlzmtbaHYE6mR-380" style="edgeStyle=orthogonalEdgeStyle;rounded=0;orthogonalLoop=1;jettySize=auto;html=1;dashed=1;endArrow=none;endFill=0;" parent="9Uq3U7OXlzmtbaHYE6mR-1" source="9Uq3U7OXlzmtbaHYE6mR-341" edge="1">
          <mxGeometry relative="1" as="geometry">
            <mxPoint x="915" y="1780" as="targetPoint" />
            <mxPoint x="915" y="1320" as="sourcePoint" />
            <Array as="points" />
          </mxGeometry>
        </mxCell>
        <mxCell id="9Uq3U7OXlzmtbaHYE6mR-381" value="" style="html=1;verticalAlign=bottom;endArrow=open;dashed=1;endSize=8;entryX=1.032;entryY=0.664;entryDx=0;entryDy=0;entryPerimeter=0;exitX=-0.1;exitY=0.96;exitDx=0;exitDy=0;exitPerimeter=0;" parent="9Uq3U7OXlzmtbaHYE6mR-1" source="9Uq3U7OXlzmtbaHYE6mR-374" target="9Uq3U7OXlzmtbaHYE6mR-110" edge="1">
          <mxGeometry relative="1" as="geometry">
            <mxPoint x="832.5" y="1570" as="sourcePoint" />
            <mxPoint x="752.5" y="1570" as="targetPoint" />
          </mxGeometry>
        </mxCell>
        <mxCell id="9Uq3U7OXlzmtbaHYE6mR-383" value="return" style="edgeLabel;html=1;align=center;verticalAlign=middle;resizable=0;points=[];" parent="9Uq3U7OXlzmtbaHYE6mR-381" vertex="1" connectable="0">
          <mxGeometry x="-0.1928" relative="1" as="geometry">
            <mxPoint as="offset" />
          </mxGeometry>
        </mxCell>
        <mxCell id="9Uq3U7OXlzmtbaHYE6mR-382" value="return" style="html=1;verticalAlign=bottom;endArrow=open;dashed=1;endSize=8;exitX=0;exitY=1;exitDx=0;exitDy=0;exitPerimeter=0;" parent="9Uq3U7OXlzmtbaHYE6mR-1" source="9Uq3U7OXlzmtbaHYE6mR-379" edge="1">
          <mxGeometry relative="1" as="geometry">
            <mxPoint x="815" y="1669" as="sourcePoint" />
            <mxPoint x="735" y="1669" as="targetPoint" />
          </mxGeometry>
        </mxCell>
        <mxCell id="9Uq3U7OXlzmtbaHYE6mR-386" style="edgeStyle=orthogonalEdgeStyle;rounded=0;orthogonalLoop=1;jettySize=auto;html=1;entryX=1.011;entryY=0.25;entryDx=0;entryDy=0;entryPerimeter=0;dashed=1;startArrow=classic;startFill=1;endArrow=none;endFill=0;" parent="9Uq3U7OXlzmtbaHYE6mR-1" source="9Uq3U7OXlzmtbaHYE6mR-384" target="9Uq3U7OXlzmtbaHYE6mR-126" edge="1">
          <mxGeometry relative="1" as="geometry">
            <Array as="points">
              <mxPoint x="800" y="1740" />
              <mxPoint x="736" y="1740" />
            </Array>
          </mxGeometry>
        </mxCell>
        <mxCell id="9Uq3U7OXlzmtbaHYE6mR-387" style="edgeStyle=orthogonalEdgeStyle;rounded=0;orthogonalLoop=1;jettySize=auto;html=1;dashed=1;startArrow=none;startFill=0;endArrow=classic;endFill=1;entryX=0;entryY=0.038;entryDx=0;entryDy=0;entryPerimeter=0;" parent="9Uq3U7OXlzmtbaHYE6mR-1" source="9Uq3U7OXlzmtbaHYE6mR-384" target="9Uq3U7OXlzmtbaHYE6mR-388" edge="1">
          <mxGeometry relative="1" as="geometry">
            <mxPoint x="880" y="1788.5" as="targetPoint" />
          </mxGeometry>
        </mxCell>
        <mxCell id="9Uq3U7OXlzmtbaHYE6mR-392" style="edgeStyle=orthogonalEdgeStyle;rounded=0;orthogonalLoop=1;jettySize=auto;html=1;dashed=1;startArrow=none;startFill=0;endArrow=classic;endFill=1;" parent="9Uq3U7OXlzmtbaHYE6mR-1" source="9Uq3U7OXlzmtbaHYE6mR-384" edge="1">
          <mxGeometry relative="1" as="geometry">
            <mxPoint x="910" y="1870" as="targetPoint" />
            <Array as="points">
              <mxPoint x="800" y="1870" />
              <mxPoint x="840" y="1870" />
            </Array>
          </mxGeometry>
        </mxCell>
        <mxCell id="9Uq3U7OXlzmtbaHYE6mR-395" value="No" style="edgeLabel;html=1;align=center;verticalAlign=middle;resizable=0;points=[];" parent="9Uq3U7OXlzmtbaHYE6mR-392" vertex="1" connectable="0">
          <mxGeometry x="-0.5294" relative="1" as="geometry">
            <mxPoint x="40" y="20" as="offset" />
          </mxGeometry>
        </mxCell>
        <mxCell id="9Uq3U7OXlzmtbaHYE6mR-384" value="type == 入参" style="rhombus;fillColor=#e1d5e7;strokeColor=#9673a6;" parent="9Uq3U7OXlzmtbaHYE6mR-1" vertex="1">
          <mxGeometry x="760" y="1767" width="80" height="43" as="geometry" />
        </mxCell>
        <mxCell id="9Uq3U7OXlzmtbaHYE6mR-388" value="encodeCbsData" style="html=1;points=[];perimeter=orthogonalPerimeter;" parent="9Uq3U7OXlzmtbaHYE6mR-1" vertex="1">
          <mxGeometry x="910" y="1787" width="10" height="52" as="geometry" />
        </mxCell>
        <mxCell id="9Uq3U7OXlzmtbaHYE6mR-389" style="edgeStyle=orthogonalEdgeStyle;rounded=0;orthogonalLoop=1;jettySize=auto;html=1;dashed=1;endArrow=none;endFill=0;" parent="9Uq3U7OXlzmtbaHYE6mR-1" target="9Uq3U7OXlzmtbaHYE6mR-388" edge="1">
          <mxGeometry relative="1" as="geometry">
            <mxPoint x="915" y="4324" as="targetPoint" />
            <mxPoint x="915" y="1764" as="sourcePoint" />
            <Array as="points" />
          </mxGeometry>
        </mxCell>
        <mxCell id="9Uq3U7OXlzmtbaHYE6mR-391" value="Yes" style="text;html=1;align=center;verticalAlign=middle;resizable=0;points=[];autosize=1;" parent="9Uq3U7OXlzmtbaHYE6mR-1" vertex="1">
          <mxGeometry x="850" y="1770" width="40" height="20" as="geometry" />
        </mxCell>
        <mxCell id="9Uq3U7OXlzmtbaHYE6mR-393" value="decodeCbsData" style="html=1;points=[];perimeter=orthogonalPerimeter;" parent="9Uq3U7OXlzmtbaHYE6mR-1" vertex="1">
          <mxGeometry x="909" y="1870" width="10" height="40" as="geometry" />
        </mxCell>
        <mxCell id="9Uq3U7OXlzmtbaHYE6mR-394" style="edgeStyle=orthogonalEdgeStyle;rounded=0;orthogonalLoop=1;jettySize=auto;html=1;dashed=1;endArrow=none;endFill=0;" parent="9Uq3U7OXlzmtbaHYE6mR-1" source="9Uq3U7OXlzmtbaHYE6mR-388" target="9Uq3U7OXlzmtbaHYE6mR-393" edge="1">
          <mxGeometry relative="1" as="geometry">
            <mxPoint x="915" y="4324" as="targetPoint" />
            <mxPoint x="915" y="1839" as="sourcePoint" />
            <Array as="points" />
          </mxGeometry>
        </mxCell>
        <mxCell id="9Uq3U7OXlzmtbaHYE6mR-396" value="return" style="html=1;verticalAlign=bottom;endArrow=open;dashed=1;endSize=8;exitX=-0.1;exitY=1.019;exitDx=0;exitDy=0;exitPerimeter=0;" parent="9Uq3U7OXlzmtbaHYE6mR-1" source="9Uq3U7OXlzmtbaHYE6mR-388" edge="1">
          <mxGeometry x="-0.229" y="-1" relative="1" as="geometry">
            <mxPoint x="810" y="1839" as="sourcePoint" />
            <mxPoint x="730" y="1839" as="targetPoint" />
            <mxPoint as="offset" />
          </mxGeometry>
        </mxCell>
        <mxCell id="9Uq3U7OXlzmtbaHYE6mR-398" value="return" style="html=1;verticalAlign=bottom;endArrow=open;dashed=1;endSize=8;" parent="9Uq3U7OXlzmtbaHYE6mR-1" edge="1">
          <mxGeometry relative="1" as="geometry">
            <mxPoint x="909" y="1910" as="sourcePoint" />
            <mxPoint x="740" y="1910" as="targetPoint" />
          </mxGeometry>
        </mxCell>
        <mxCell id="9Uq3U7OXlzmtbaHYE6mR-399" value="" style="edgeStyle=orthogonalEdgeStyle;html=1;align=left;spacingLeft=2;endArrow=block;rounded=0;dashed=1;" parent="9Uq3U7OXlzmtbaHYE6mR-1" edge="1">
          <mxGeometry relative="1" as="geometry">
            <mxPoint x="740" y="1470" as="sourcePoint" />
            <Array as="points">
              <mxPoint x="790.5" y="1470" />
            </Array>
            <mxPoint x="790" y="1490" as="targetPoint" />
          </mxGeometry>
        </mxCell>
        <mxCell id="9Uq3U7OXlzmtbaHYE6mR-361" value="" style="html=1;points=[];perimeter=orthogonalPerimeter;fillColor=#fff2cc;strokeColor=#d6b656;" parent="9Uq3U7OXlzmtbaHYE6mR-1" vertex="1">
          <mxGeometry x="910" y="1365" width="10" height="30" as="geometry" />
        </mxCell>
        <mxCell id="9Uq3U7OXlzmtbaHYE6mR-364" value="" style="html=1;points=[];perimeter=orthogonalPerimeter;fillColor=#fff2cc;strokeColor=#d6b656;" parent="9Uq3U7OXlzmtbaHYE6mR-1" vertex="1">
          <mxGeometry x="909" y="1427" width="10" height="30" as="geometry" />
        </mxCell>
        <mxCell id="9Uq3U7OXlzmtbaHYE6mR-374" value="getDecodeResultMap" style="html=1;points=[];perimeter=orthogonalPerimeter;" parent="9Uq3U7OXlzmtbaHYE6mR-1" vertex="1">
          <mxGeometry x="910" y="1520" width="10" height="50" as="geometry" />
        </mxCell>
        <mxCell id="9Uq3U7OXlzmtbaHYE6mR-379" value="getEncodeResultMap" style="html=1;points=[];perimeter=orthogonalPerimeter;" parent="9Uq3U7OXlzmtbaHYE6mR-1" vertex="1">
          <mxGeometry x="910" y="1621" width="10" height="49" as="geometry" />
        </mxCell>
        <mxCell id="9Uq3U7OXlzmtbaHYE6mR-404" value="方法名" style="swimlane;fontStyle=1;align=center;verticalAlign=top;childLayout=stackLayout;horizontal=1;startSize=26;horizontalStack=0;resizeParent=1;resizeParentMax=0;resizeLast=0;collapsible=1;marginBottom=0;fillColor=#ffe6cc;strokeColor=#d79b00;" parent="9Uq3U7OXlzmtbaHYE6mR-1" vertex="1">
          <mxGeometry x="1231" y="4420" width="59" height="52" as="geometry" />
        </mxCell>
        <mxCell id="9Uq3U7OXlzmtbaHYE6mR-405" value="方法参数" style="text;strokeColor=#d79b00;fillColor=#ffe6cc;align=left;verticalAlign=top;spacingLeft=4;spacingRight=4;overflow=hidden;rotatable=0;points=[[0,0.5],[1,0.5]];portConstraint=eastwest;" parent="9Uq3U7OXlzmtbaHYE6mR-404" vertex="1">
          <mxGeometry y="26" width="59" height="26" as="geometry" />
        </mxCell>
        <mxCell id="9Uq3U7OXlzmtbaHYE6mR-408" value="类" style="html=1;fillColor=#d5e8d4;strokeColor=#82b366;" parent="9Uq3U7OXlzmtbaHYE6mR-1" vertex="1">
          <mxGeometry x="1231" y="4490" width="59" height="50" as="geometry" />
        </mxCell>
        <mxCell id="9Uq3U7OXlzmtbaHYE6mR-409" value="" style="html=1;points=[];perimeter=orthogonalPerimeter;fillColor=#fff2cc;strokeColor=#d6b656;" parent="9Uq3U7OXlzmtbaHYE6mR-1" vertex="1">
          <mxGeometry x="1231" y="4550" width="10" height="30" as="geometry" />
        </mxCell>
        <mxCell id="9Uq3U7OXlzmtbaHYE6mR-410" value="&amp;nbsp; &amp;nbsp; &amp;nbsp; ：redis缓存" style="text;html=1;align=center;verticalAlign=middle;resizable=0;points=[];autosize=1;" parent="9Uq3U7OXlzmtbaHYE6mR-1" vertex="1">
          <mxGeometry x="1220" y="4550" width="100" height="20" as="geometry" />
        </mxCell>
        <mxCell id="9Uq3U7OXlzmtbaHYE6mR-411" value="" style="rhombus;fillColor=#e1d5e7;strokeColor=#9673a6;" parent="9Uq3U7OXlzmtbaHYE6mR-1" vertex="1">
          <mxGeometry x="1226" y="4590" width="30" height="30" as="geometry" />
        </mxCell>
        <mxCell id="9Uq3U7OXlzmtbaHYE6mR-412" value="&amp;nbsp; &amp;nbsp;：条件" style="text;html=1;align=center;verticalAlign=middle;resizable=0;points=[];autosize=1;" parent="9Uq3U7OXlzmtbaHYE6mR-1" vertex="1">
          <mxGeometry x="1260" y="4590" width="60" height="20" as="geometry" />
        </mxCell>
      </root>
    </mxGraphModel>
  </diagram>
</mxfile>
